<?xml version="1.0" standalone="no"?>
<!DOCTYPE svg PUBLIC "-//W3C//DTD SVG 1.1//EN" "http://www.w3.org/Graphics/SVG/1.1/DTD/svg11.dtd" >
<svg xmlns="http://www.w3.org/2000/svg">
<metadata></metadata>
<defs>
<font id="gist_lineextralight" horiz-adv-x="1787" >
<font-face units-per-em="2048" ascent="1638" descent="-410" />
<missing-glyph horiz-adv-x="614" />
<glyph unicode="&#xfb01;" horiz-adv-x="1374" d="M-555 -287l29 -4q-6 -46 10.5 -94t52 -89t97 -67t137.5 -26q81 0 146.5 30t108.5 77t76 118.5t51.5 140.5t34.5 158l187 1057h-277l6 28h277l16 93q17 101 38.5 182t60 165t88.5 140t125.5 91.5t169.5 35.5q88 0 159.5 -32t113 -83.5t61 -112t12.5 -120.5l-29 4 q6 52 -12.5 106.5t-56.5 101.5t-103.5 77t-144.5 30q-88 0 -158.5 -33.5t-117 -86.5t-83 -133.5t-57 -158.5t-37.5 -178l-16 -88h720l-174 -981h281l-6 -28h-590l6 28h281l170 953h-692l-189 -1061q-13 -74 -29 -135t-40.5 -126.5t-58.5 -115t-78.5 -89.5t-105.5 -61.5 t-134 -21.5q-83 0 -150.5 29t-106.5 74.5t-57.5 99.5t-11.5 106z" />
<glyph unicode="&#xfb02;" horiz-adv-x="1511" d="M-553 -287l29 -4q-6 -46 10.5 -94t52 -89t97 -67t137.5 -26q81 0 146.5 30t108.5 77t76 118.5t51.5 140.5t34.5 158l187 1057h-277l6 28h275l29 158q11 63 23.5 115.5t32.5 111t45 103.5t61 87.5t79.5 70.5t102 44.5t127.5 16.5q214 0 364 -166l-209 -1200 q-16 -81 -7 -140t27 -98t48.5 -62t58.5 -32.5t56 -9.5q87 0 178 76l18 -23q-97 -82 -196 -82q-30 0 -62 11t-66.5 36.5t-56.5 68.5t-32.5 107.5t6.5 151.5l206 1188q-139 145 -333 145q-90 0 -160.5 -30t-115.5 -76.5t-79.5 -119t-53 -140.5t-34.5 -158l-26 -154h407l-6 -28 h-407l-187 -1061q-13 -74 -29 -135t-40.5 -126.5t-58.5 -115t-78.5 -89.5t-105.5 -61.5t-134 -21.5q-83 0 -150.5 29t-106.5 74.5t-57.5 99.5t-11.5 106z" />
<glyph unicode="&#xfb03;" horiz-adv-x="2144" d="M-553 -287l29 -4q-6 -46 10.5 -94t52 -89t97 -67t137.5 -26q81 0 146.5 30t108.5 77t76 118.5t51.5 140.5t34.5 158l185 1057h-277l6 28h277q13 74 27.5 137t37.5 130t51 120t67.5 101.5t86.5 80.5t109.5 51t134.5 19q223 0 379 -180q127 248 375 248q88 0 159.5 -32 t113 -83.5t61 -112t12.5 -120.5l-29 4q5 52 -13.5 106.5t-56.5 101.5t-103 77t-144 30q-88 0 -158.5 -33.5t-117 -86.5t-83 -133.5t-57 -158.5t-37.5 -178l-16 -88h721l-175 -981h281l-6 -28h-590l6 28h281l170 953h-692l-189 -1061q-13 -74 -29 -135t-40.5 -126.5 t-58.5 -115t-78.5 -89.5t-105.5 -61.5t-134 -21.5q-149 0 -244 92l20 21q87 -84 224 -84q81 0 146.5 30t108.5 77t76 118.5t51.5 140.5t34.5 158l187 1057h-739l-187 -1061q-13 -74 -29 -135t-40.5 -126.5t-58.5 -115t-78.5 -89.5t-105.5 -61.5t-134 -21.5q-83 0 -150.5 29 t-106.5 74.5t-57.5 99.5t-11.5 106zM410 1042h741l16 93q30 200 95 338q-150 180 -367 180q-94 0 -169.5 -34.5t-125 -89t-88.5 -137.5t-61 -164t-41 -186z" />
<glyph unicode="&#xfb04;" horiz-adv-x="2281" d="M-553 -287l29 -4q-6 -46 10.5 -94t52 -89t97 -67t137.5 -26q81 0 146.5 30t108.5 77t76 118.5t51.5 140.5t34.5 158l185 1057h-277l6 28h277q13 74 27.5 137t37.5 130t51 120t67.5 101.5t86.5 80.5t109.5 51t134.5 19q221 0 375 -174q118 242 381 242q214 0 364 -166 l-213 -1216q-15 -77 -6 -133.5t27.5 -93.5t49 -59t59 -31t57.5 -9q46 0 86.5 17.5t91.5 58.5l18 -21q-97 -84 -196 -84q-31 0 -63 10.5t-67 35t-57.5 65.5t-33 102.5t5.5 145.5l211 1204q-139 145 -334 145q-90 0 -160.5 -30t-115.5 -76.5t-79.5 -119t-53 -140.5t-34.5 -158 l-28 -154h407l-6 -28h-405l-189 -1061q-13 -74 -29 -135t-40.5 -126.5t-58.5 -115t-78.5 -89.5t-105.5 -61.5t-134 -21.5q-149 0 -244 92l20 21q87 -84 224 -84q81 0 146.5 30t108.5 77t76 118.5t51.5 140.5t34.5 158l189 1057h-741l-187 -1061q-13 -74 -29 -135 t-40.5 -126.5t-58.5 -115t-78.5 -89.5t-105.5 -61.5t-134 -21.5q-83 0 -150.5 29t-106.5 74.5t-57.5 99.5t-11.5 106zM410 1042h741l29 158q28 171 75 279q-147 174 -360 174q-94 0 -169.5 -34.5t-125 -89t-88.5 -137.5t-61 -164t-41 -186z" />
<glyph horiz-adv-x="2048" />
<glyph horiz-adv-x="2048" />
<glyph unicode="&#xd;" horiz-adv-x="2048" />
<glyph unicode=" "  horiz-adv-x="614" />
<glyph unicode="&#x09;" horiz-adv-x="614" />
<glyph unicode="&#xa0;" horiz-adv-x="614" />
<glyph unicode="!" horiz-adv-x="573" d="M115 72q0 26 18.5 44.5t44.5 18.5t45 -18.5t19 -44.5t-19 -45t-45 -19t-44.5 19t-18.5 45zM143 72q0 -15 10.5 -25t24.5 -10q15 0 25 10.5t10 24.5q0 15 -10.5 24.5t-24.5 9.5q-15 0 -25 -10t-10 -24zM223 399l213 1198h29l-213 -1198h-29z" />
<glyph unicode="&#x22;" horiz-adv-x="888" d="M264 965l113 632h29l-113 -632h-29zM698 965l113 632h29l-113 -632h-29z" />
<glyph unicode="#" horiz-adv-x="1466" d="M66 487l6 29h311l192 549h-315l6 29h320l176 503h33l-177 -503h482l176 503h33l-176 -503h313l-6 -29h-318l-192 -549h315l-6 -29h-319l-170 -487h-33l170 487h-481l-170 -487h-33l170 487h-307zM416 516h481l193 549h-482z" />
<glyph unicode="$" horiz-adv-x="1222" d="M127 588l29 -6q-16 -91 7 -168t75.5 -129t119.5 -86t144 -49l116 657q-61 28 -103 50t-90 56t-76.5 68t-48 82t-19.5 102q0 136 105 230t282 94q19 0 69 -4l37 211h29l-39 -215q79 -13 144.5 -45.5t116 -85t71 -133t2.5 -179.5l-29 4q16 93 -2.5 168t-64.5 123.5t-107 78 t-135 40.5l-111 -631q12 -5 42.5 -19t48 -22t49 -24t51.5 -29t48 -32.5t46 -38t38 -43.5t31.5 -50.5t19 -57t7.5 -65.5q0 -143 -109.5 -237t-297.5 -94q-55 0 -99 8l-37 -215h-28l39 219q-65 13 -123.5 38.5t-110.5 66t-87 92t-49.5 121.5t-0.5 149zM309 1165 q0 -49 17.5 -92t43 -74.5t70.5 -63t84 -52.5t99 -49l108 622q-40 4 -63 4q-167 0 -263 -84t-96 -211zM530 143q46 -6 93 -6q176 0 277 86t101 217q0 30 -7 58.5t-17 51.5t-29 46.5t-34.5 40t-42.5 35.5t-44 30.5t-48.5 27.5t-46.5 23.5t-47 22t-42 19.5z" />
<glyph unicode="%" horiz-adv-x="2056" d="M227 1255q0 138 99 237t237 99t237 -99t99 -237q0 -137 -99 -236t-237 -99t-237 99t-99 236zM256 1255q0 -128 89 -217.5t218 -89.5t218 89.5t89 217.5q0 129 -89 218.5t-218 89.5t-218 -89.5t-89 -218.5zM395 0q212 266 637 798.5t637 798.5h35q-212 -266 -637 -798.5 t-637 -798.5h-35zM1206 348q0 138 99 237t237 99t237 -99t99 -237t-99 -237t-237 -99t-237 99t-99 237zM1235 348q0 -129 89 -218t218 -89t218 89t89 218t-89 218t-218 89t-218 -89t-89 -218z" />
<glyph unicode="&#x26;" horiz-adv-x="1679" d="M150 569q0 128 52.5 242t138 190t197.5 115t228 27q-72 78 -72 186q0 106 80 190.5t201 84.5q66 0 123 -27.5t91.5 -74.5t47 -103.5t-10 -120.5t-79.5 -119l-21 21q64 62 79.5 134t-10.5 128.5t-85.5 94.5t-134.5 38q-112 0 -182 -73.5t-70 -172.5q0 -88 54 -155.5 t161 -94.5l-8 -28q-69 17 -125 57q-113 21 -227 -12t-202 -105t-143 -183.5t-55 -238.5q0 -126 44.5 -230.5t120 -172t174 -104.5t208.5 -37q194 0 330.5 120t136.5 291q0 139 -109 234q-36 -58 -58 -92t-58 -78t-66.5 -67.5t-71.5 -40.5t-86 -17q-89 0 -148.5 57t-59.5 141 q0 92 76 156t210 64q143 0 252 -82q72 110 144.5 169.5t164.5 59.5q55 0 100 -20t72 -52t41.5 -68.5t14.5 -72.5q0 -56 -30.5 -109.5t-72.5 -85.5l-16 21q90 75 90 174q0 71 -52 127.5t-147 56.5q-86 0 -150.5 -55t-133.5 -164q58 -50 90.5 -117t32.5 -139 q0 -119 -67 -220.5t-181.5 -160.5t-247.5 -59q-90 0 -174.5 25t-157 74t-127 117t-85.5 160t-31 197zM563 573q0 -74 50.5 -122t129.5 -48q49 0 92.5 20.5t83.5 64.5t69 86t71 112q-105 78 -238 78q-122 0 -190 -56t-68 -135z" />
<glyph unicode="'" horiz-adv-x="454" d="M264 965l113 632h29l-113 -632h-29z" />
<glyph unicode="(" horiz-adv-x="712" d="M115 395q0 188 40.5 368t108.5 327t160.5 279t192 231t208.5 176l17 -25q-108 -76 -206 -173t-189 -226t-157.5 -273t-106.5 -321.5t-40 -362.5q0 -282 85.5 -511.5t222.5 -356.5l-21 -21q-139 130 -227 366.5t-88 522.5z" />
<glyph unicode=")" horiz-adv-x="710" d="M-137 -467q136 96 256 227t221.5 300.5t161 384t59.5 444.5q0 283 -85 512t-222 356l20 21q139 -130 227.5 -366.5t88.5 -522.5q0 -188 -40.5 -368t-108.5 -327t-161 -279t-192.5 -231t-208.5 -176z" />
<glyph unicode="*" horiz-adv-x="978" d="M268 1432l13 24l303 -162l57 336l29 -6l-60 -336l342 49l4 -28l-342 -49l152 -306l-25 -12l-151 305l-246 -235l-20 20l245 236z" />
<glyph unicode="+" horiz-adv-x="1124" d="M131 735l6 29h426l76 428h29l-76 -428h430l-6 -29h-428l-76 -430h-29l76 430h-428z" />
<glyph unicode="," horiz-adv-x="657" d="M16 -270q10 7 27.5 19t62 49.5t78.5 75t62 89t28 96.5q0 21 -11 34t-27 13q-15 0 -25 -10t-10 -24q0 -15 10.5 -25t24.5 -10v-29q-26 0 -45 19t-19 45t19 44.5t45 18.5q29 0 48 -21t19 -55q0 -50 -28 -105t-67.5 -97t-79 -77t-67.5 -54l-28 -19z" />
<glyph unicode="-" horiz-adv-x="821" d="M154 614l6 29h493l-6 -29h-493z" />
<glyph unicode="." horiz-adv-x="518" d="M90 72q0 26 19 44.5t45 18.5t44.5 -18.5t18.5 -44.5t-18.5 -45t-44.5 -19t-45 19t-19 45zM119 72q0 -15 10.5 -25t24.5 -10q15 0 24.5 10.5t9.5 24.5q0 15 -10 24.5t-24 9.5q-15 0 -25 -10t-10 -24z" />
<glyph unicode="/" horiz-adv-x="1363" d="M-92 -457l1503 2194h37l-1503 -2194h-37z" />
<glyph unicode="0" horiz-adv-x="1464" d="M182 647q0 141 30 280t88.5 258.5t137 211.5t181.5 145t217 53q231 0 363 -170t132 -473q0 -141 -30.5 -280t-88.5 -259t-136.5 -212.5t-181.5 -145.5t-216 -53q-229 0 -362.5 171t-133.5 474zM211 647q0 -292 125 -454t342 -162q135 0 253.5 78.5t199 207.5t126.5 295 t46 340q0 292 -124 453.5t-343 161.5q-136 0 -254.5 -78.5t-198.5 -207t-126 -294.5t-46 -340z" />
<glyph unicode="1" horiz-adv-x="786" d="M20 33l7 28h278l264 1502l-315 -109l-8 29l338 116l4 -14l14 -2l-268 -1522h282l-6 -28h-590z" />
<glyph unicode="2" horiz-adv-x="1304" d="M27 -2q21 113 66 209.5t98.5 164t129.5 130t142 102.5t153 84q31 16 84.5 42t83.5 41t76.5 40.5t74 43t64.5 44.5t58 50.5t45.5 55t37 63.5t21 71t8.5 82q0 154 -112 250t-289 96q-79 0 -154.5 -25t-138.5 -71.5t-104 -122.5t-45 -170h-29q4 99 48 180.5t112.5 132 t148.5 77.5t162 27q186 0 308 -105.5t122 -268.5q0 -46 -9 -87.5t-22.5 -75.5t-38.5 -67.5t-47.5 -58t-60.5 -52.5t-67 -46.5t-76.5 -44t-78.5 -41t-84.5 -42t-84.5 -42.5q-69 -35 -122 -66.5t-115.5 -75t-110 -91.5t-92 -107.5t-77 -133.5t-51.5 -159q105 75 224 75 q87 0 213 -36q168 -50 247 -50q109 0 185 51.5t106.5 135t14.5 182.5l28 4q27 -168 -63 -284.5t-271 -116.5q-91 0 -256 49q-130 37 -204 37q-127 0 -236 -92l-10 10z" />
<glyph unicode="3" horiz-adv-x="1220" d="M10 -37l17 25q210 -123 430 -123q141 0 258 57.5t187.5 166.5t70.5 249q0 199 -142 315.5t-362 122.5h-20l6 29q143 0 262.5 38t195 101t117 140t41.5 157q0 47 -13 92.5t-41.5 88t-70 74.5t-102.5 51.5t-135 19.5q-156 0 -264 -82t-144 -207l-29 8q39 132 156 220.5 t281 88.5q97 0 174.5 -32.5t123 -85t69.5 -113.5t24 -123q0 -156 -131.5 -286t-360.5 -167q175 -38 284 -156t109 -294q0 -145 -76 -261.5t-199.5 -178.5t-268.5 -62q-229 0 -447 127z" />
<glyph unicode="4" horiz-adv-x="1333" d="M14 358l1026 1250l21 -17l-977 -1190q106 52 240 52q94 0 289.5 -36.5t260.5 -41.5l84 477h29l-84 -477h15q103 0 163 30t111 89l22 -19q-52 -61 -119 -95t-177 -34h-19l-78 -440h283l-6 -29h-592l6 29h281l77 442q-72 4 -264 40t-282 36q-171 0 -291 -86l-8 12z" />
<glyph unicode="5" horiz-adv-x="1271" d="M-6 -51l14 24q173 -108 395 -108q122 -1 239.5 43t209.5 121.5t148.5 193t56.5 246.5q0 194 -118 304t-294 110q-198 0 -371 -121l-8 12l-14 4l217 787h721l-57 -328h-29l53 299h-668l-198 -729q168 104 354 104q118 0 217 -51t161 -153t62 -238q0 -137 -59.5 -258 t-156 -202t-219 -127.5t-247.5 -45.5q-225 0 -409 113z" />
<glyph unicode="6" horiz-adv-x="1363" d="M170 602q0 121 22.5 252t65.5 260.5t110.5 245.5t151 205t195 141.5t235.5 52.5q122 0 218 -54t151 -157l-25 -12q-104 195 -344 195q-117 0 -222.5 -49t-185.5 -132.5t-145 -193t-107.5 -233t-65.5 -249.5t-25 -245q45 183 201 300.5t339 117.5q64 0 128 -18t123.5 -57 t105 -94t73 -135t27.5 -174q0 -122 -42.5 -228.5t-114 -179.5t-166 -115t-197.5 -42q-75 0 -145 20t-136.5 66t-115.5 113.5t-79 170t-30 228.5zM217 418q22 -101 69.5 -177.5t110.5 -120.5t133 -65.5t146 -21.5q132 0 243.5 66t179.5 189.5t68 280.5q0 110 -38 198.5 t-101 141.5t-137 81t-152 28q-106 0 -208.5 -47.5t-179.5 -126t-115.5 -192t-18.5 -234.5z" />
<glyph unicode="7" horiz-adv-x="1138" d="M213 1237l57 328h961v-15l12 -8l-448 -588q-457 -601 -457 -1028h-29q0 439 461 1045l430 565h-905l-53 -299h-29z" />
<glyph unicode="8" horiz-adv-x="1411" d="M109 385q0 52 12.5 100t32 86t53 73.5t65 62t79 53.5t84.5 44.5t92.5 38.5t91 32.5t90.5 29.5q-369 165 -369 432q0 120 72 217.5t191 151t259 53.5q201 0 326 -107.5t125 -262.5q0 -79 -34 -149.5t-84.5 -119.5t-124.5 -93.5t-138 -72t-141 -53.5q76 -33 133 -63 t115 -72t95 -86.5t60 -103.5t23 -127q0 -141 -83.5 -246.5t-219 -158t-300.5 -52.5q-229 0 -367 109.5t-138 283.5zM137 385q0 -162 130 -263.5t347 -101.5q160 0 289 49t207 148t78 232q0 66 -23.5 123.5t-60 100t-96.5 83t-118.5 69.5t-139.5 62q-218 -70 -308 -112 q-234 -109 -287 -274q-18 -55 -18 -116zM369 1337q0 -65 23.5 -123t59 -100.5t88.5 -81t101 -64t107 -50.5q66 21 119.5 42t119.5 52.5t115 68t92.5 82t66.5 103.5t23 123q0 145 -115.5 243.5t-306.5 98.5q-135 0 -247.5 -50t-179 -141t-66.5 -203z" />
<glyph unicode="9" horiz-adv-x="1363" d="M94 51l25 12q104 -194 344 -194q117 0 222.5 49t185.5 132.5t145 193t107.5 233t65.5 249.5t25 245q-45 -183 -201 -300.5t-339 -117.5q-81 0 -160 30t-146.5 86.5t-109 150.5t-41.5 210q0 122 42.5 228.5t114 179.5t166 115t197.5 42q75 0 145 -20t136.5 -66 t115.5 -113.5t79 -170t30 -228.5q0 -121 -22.5 -252t-65.5 -260.5t-110.5 -245.5t-151 -205t-195 -141.5t-235.5 -52.5q-122 0 -218 54t-151 157zM246 1030q0 -89 25.5 -164t67.5 -126.5t97.5 -88t115.5 -53t122 -16.5q106 0 208.5 47.5t179.5 126t115.5 192t18.5 234.5 q-22 101 -69.5 177.5t-110.5 120.5t-133 65.5t-146 21.5q-99 0 -188.5 -39t-156.5 -108t-106.5 -170.5t-39.5 -219.5z" />
<glyph unicode=":" horiz-adv-x="518" d="M92 72q0 26 19 44.5t45 18.5t44.5 -18.5t18.5 -44.5t-18.5 -45t-44.5 -19t-45 19t-19 45zM121 72q0 -15 10.5 -25t24.5 -10q15 0 24.5 10.5t9.5 24.5q0 15 -10 24.5t-24 9.5q-15 0 -25 -10t-10 -24zM221 807q0 26 19 44.5t45 18.5t44.5 -18.5t18.5 -44.5t-18.5 -45 t-44.5 -19t-45 19t-19 45zM250 807q0 -15 10.5 -25t24.5 -10q15 0 24.5 10.5t9.5 24.5q0 15 -10 25t-24 10q-15 0 -25 -10.5t-10 -24.5z" />
<glyph unicode=";" horiz-adv-x="602" d="M-10 -268q10 7 27.5 19t62 49.5t78.5 75t62 89t28 96.5q0 21 -11.5 34.5t-27.5 13.5q-15 0 -25 -10.5t-10 -24.5q0 -15 10.5 -25t24.5 -10v-29q-26 0 -45 19t-19 45t19 44.5t45 18.5q29 0 48 -21t19 -55q0 -50 -28 -105t-67.5 -97t-79 -77t-67.5 -54l-28 -19zM276 807 q0 26 19 44.5t45 18.5t44.5 -18.5t18.5 -44.5t-18.5 -45t-44.5 -19t-45 19t-19 45zM305 807q0 -15 10.5 -25t24.5 -10q15 0 25 10.5t10 24.5q0 15 -10.5 25t-24.5 10q-15 0 -25 -10.5t-10 -24.5z" />
<glyph unicode="&#x3c;" horiz-adv-x="1173" d="M123 737l8 13l-6 12l936 448l12 -24l-911 -438l751 -435l-14 -24z" />
<glyph unicode="=" horiz-adv-x="1239" d="M141 492l6 28h887l-6 -28h-887zM227 981l6 29h887l-6 -29h-887z" />
<glyph unicode="&#x3e;" horiz-adv-x="1173" d="M131 313l911 439l-751 434l14 24l776 -448l-8 -12l6 -13l-936 -448z" />
<glyph unicode="?" horiz-adv-x="1015" d="M236 1210q9 111 70.5 200t155.5 137t200 48q149 0 242 -88t93 -217q0 -61 -21 -116t-50.5 -94t-80 -80t-90 -66.5t-100.5 -59.5q-146 -84 -194 -121q-113 -89 -101 -193q1 -7 2 -15l13 -62l-29 -6l-12 64q-9 47 3 90t36.5 75t67 65.5t81.5 58t94 55.5q17 9 25 14 q50 29 82 49t75 50.5t69.5 59t52 64.5t37.5 78.5t12 89.5q0 120 -83.5 198.5t-223.5 78.5q-156 0 -270.5 -100t-127.5 -259zM248 72q0 26 18.5 44.5t44.5 18.5t45 -18.5t19 -44.5t-19 -45t-45 -19t-44.5 19t-18.5 45zM276 72q0 -15 10.5 -25t24.5 -10q15 0 25 10.5t10 24.5 q0 15 -10.5 24.5t-24.5 9.5q-15 0 -25 -10t-10 -24z" />
<glyph unicode="@" horiz-adv-x="2091" d="M119 422q0 160 56 314t155 278t227.5 219t282 147t309.5 52q220 0 396 -96t273 -260t97 -363q0 -119 -31 -220t-83.5 -167.5t-120 -104t-140.5 -37.5q-99 0 -161.5 58.5t-61.5 154.5q-60 -96 -162 -154.5t-211 -58.5q-132 0 -219.5 91t-87.5 223q0 108 61.5 204 t161 152.5t207.5 56.5q121 0 206.5 -77.5t100.5 -196.5l82 293h31l-129 -459q-32 -110 22.5 -184t159.5 -74q65 0 127.5 36t111 99t78 158.5t29.5 206.5q0 144 -54.5 271t-150 219.5t-234 146t-298.5 53.5q-127 0 -253 -36t-236 -100t-205 -155.5t-163 -198.5t-106.5 -234 t-38.5 -257q0 -205 89.5 -371.5t253.5 -263t372 -96.5q225 0 438 104l13 -24q-213 -109 -451 -109q-214 0 -384.5 101.5t-264.5 274.5t-94 384zM666 498q0 -123 77.5 -204t200.5 -81q102 0 195.5 51.5t151 140.5t57.5 191q0 123 -79 205t-202 82q-102 0 -194.5 -52 t-149.5 -141.5t-57 -191.5z" />
<glyph unicode="A" d="M-145 33l6 28h254l932 1545l12 -9l14 5l387 -1541h258l-6 -28h-592l6 28h304l-119 471h-879l-285 -471h306l-7 -28h-591zM451 561h854l-252 998z" />
<glyph unicode="B" horiz-adv-x="1662" d="M-14 33l6 28h278l258 1475h-280l6 29h960q133 0 225.5 -92.5t92.5 -229.5q0 -129 -94 -238.5t-234 -144.5q127 -33 208 -130.5t81 -227.5q0 -90 -42.5 -175.5t-114 -150t-173.5 -104t-213 -39.5h-964zM299 61h651q142 0 261.5 62.5t186 163.5t66.5 215q0 150 -106.5 247 t-263.5 97h-656zM442 874h652h16q162 6 277.5 116t115.5 253q0 128 -82.5 210.5t-206.5 82.5h-655z" />
<glyph unicode="C" horiz-adv-x="1691" d="M156 741q0 171 71 329t189 273t277.5 183.5t330.5 68.5q129 0 245.5 -40.5t200.5 -118.5t113 -179l62 340h28l-121 -682h-28l45 256q-5 118 -81.5 209.5t-198.5 139t-265 47.5q-166 0 -321 -66t-268.5 -176.5t-182 -264t-68.5 -319.5q0 -147 53.5 -278t146.5 -226 t224 -150.5t279 -55.5q167 0 307.5 50.5t282.5 172.5l18 -23q-148 -124 -293.5 -176.5t-314.5 -52.5q-153 0 -289 58t-233 157t-153 235.5t-56 288.5z" />
<glyph unicode="D" horiz-adv-x="1775" d="M-14 33l6 28h278l258 1475h-280l6 29h745q195 0 345.5 -72t238.5 -216t88 -341q0 -185 -64 -351t-177 -287.5t-277.5 -193t-355.5 -71.5h-811zM299 61h498q186 0 345.5 68.5t268 186.5t170 278.5t61.5 341.5q0 191 -82.5 328t-226.5 204.5t-334 67.5h-440z" />
<glyph unicode="E" horiz-adv-x="1501" d="M-14 33l6 28h278l258 1475h-280l6 29h1257l-57 -328h-29l54 299h-920l-125 -707h725l-6 -28h-723l-131 -740h934l53 299h29l-58 -327h-1271z" />
<glyph unicode="F" horiz-adv-x="1449" d="M-14 33l6 28h278l258 1475h-280l6 29h1257l-57 -328h-29l54 299h-920l-133 -752h704l-6 -28h-702l-123 -695h283l-7 -28h-589z" />
<glyph unicode="G" horiz-adv-x="1740" d="M156 741q0 171 71 329t189 273t277.5 183.5t330.5 68.5q200 0 358.5 -93.5t200.5 -246.5l62 342h28l-106 -604h-29l31 178q-5 118 -81.5 209.5t-198.5 139t-265 47.5q-166 0 -321 -66t-268.5 -176.5t-182 -264t-68.5 -319.5q0 -196 90 -359t247 -257t345 -94 q390 0 619 315v2l61 354h-618l6 29h645l-70 -399l-57 -332h-29l50 285q-234 -283 -607 -283q-194 0 -357.5 98.5t-258 268.5t-94.5 372z" />
<glyph unicode="H" horiz-adv-x="1902" d="M-16 33l6 28h280l258 1475h-282l6 29h592l-6 -29h-279l-125 -707h1096l123 707h-281l6 29h592l-6 -29h-281l-260 -1475h283l-6 -28h-592l6 28h281l129 740h-1094l-131 -740h281l-7 -28h-589z" />
<glyph unicode="I" horiz-adv-x="778" d="M-14 33l6 28h278l256 1475h-280l6 29h592l-6 -29h-281l-258 -1475h283l-7 -28h-589z" />
<glyph unicode="J" horiz-adv-x="1300" d="M52 154q1 63 22 122l28 -10q-21 -55 -21 -114q0 -55 21 -107q21 -53 61.5 -95t109 -67.5t155.5 -25.5q103 0 188 39t139.5 98t96.5 141.5t63.5 154t36.5 152.5l193 1094h-613l7 29h639l-197 -1127q-10 -56 -24 -109.5t-38 -116t-53.5 -115.5t-73.5 -104t-95.5 -86.5 t-120.5 -57t-148 -21.5q-95 0 -169.5 28t-118 74t-66.5 104q-22 56 -22 115v5z" />
<glyph unicode="K" horiz-adv-x="1675" d="M-14 33l6 28h278l258 1475h-280l6 29h592l-6 -29h-281l-178 -1016l387 348v2l737 666h-291l7 29h591l-6 -29h-256l-747 -674l457 -801h288l-6 -28h-299l-461 811l-409 -369l-74 -414h283l-7 -28h-589z" />
<glyph unicode="L" horiz-adv-x="1396" d="M-16 33l6 28h278l258 1475h-280l6 29h592l-6 -29h-281l-260 -1475h891l53 299h29l-58 -327h-1228z" />
<glyph unicode="M" horiz-adv-x="2222" d="M-14 33l6 28h278l258 1475h-280l6 29h303l483 -1291l942 1291h306l-7 -29h-278l-260 -1475h282l-6 -28h-592l7 28h280l250 1428l-915 -1253l-13 6l-14 -4l-471 1257l-252 -1434h281l-7 -28h-587z" />
<glyph unicode="N" horiz-adv-x="1900" d="M-16 33l6 28h278l258 1475h-280l6 29h301l860 -1524l262 1495h-280l6 29h592l-6 -29h-281l-270 -1538l-15 2l-12 -6l-858 1513l-254 -1446h283l-7 -28h-589z" />
<glyph unicode="O" horiz-adv-x="1861" d="M156 741q0 171 71 329.5t189 273t277.5 183t330.5 68.5q152 0 288 -58t233 -157t153.5 -236t56.5 -288q0 -171 -71.5 -329.5t-189.5 -273t-277.5 -183t-329.5 -68.5q-153 0 -289 58t-233 157t-153 235.5t-56 288.5zM184 741q0 -147 53.5 -278t146.5 -226t224 -150.5 t279 -55.5q221 0 414.5 110.5t309 301t115.5 413.5q0 196 -91 359t-252.5 257.5t-358.5 94.5q-166 0 -321 -65.5t-268.5 -176t-182 -264t-68.5 -320.5z" />
<glyph unicode="P" horiz-adv-x="1634" d="M-14 33l6 28h278l258 1475h-280l6 29h922q120 0 221 -53.5t161 -149t60 -211.5q0 -101 -47 -196t-126.5 -167t-192.5 -115.5t-238 -43.5h-615l-100 -568h283l-7 -28h-589zM403 657h611q121 0 228.5 41t183 108.5t119.5 157.5t44 187q0 167 -119.5 276t-293.5 109h-617z " />
<glyph unicode="Q" horiz-adv-x="1859" d="M156 741q0 171 71 329.5t189 273t277.5 183t330.5 68.5q152 0 288 -58t233 -157t153.5 -236t56.5 -288q0 -156 -59.5 -302.5t-161 -258t-239 -187t-289.5 -98.5q41 -11 91 -31.5t79.5 -35t97.5 -49.5t86 -44q84 -42 142 -67t135 -45q63 -16 115 -16h22q61 5 128 35.5 t126 92.5l20 -20q-52 -55 -109 -87t-117 -40q-42 -6 -81 -6q-17 0 -34 1q-55 4 -121.5 26.5t-117.5 44.5t-120 57q-16 8 -67.5 34.5t-71.5 36.5t-64.5 31t-69.5 30t-61.5 21t-67 17t-59.5 6q-153 0 -289 58t-233 157t-153 235.5t-56 288.5zM184 741q0 -147 53.5 -278 t146.5 -226t224 -150.5t279 -55.5q221 0 414.5 110.5t309 301t115.5 413.5q0 196 -91 359t-252.5 257.5t-358.5 94.5q-166 0 -321 -65.5t-268.5 -176t-182 -264t-68.5 -320.5z" />
<glyph unicode="R" horiz-adv-x="1714" d="M-14 33l6 28h278l258 1475h-280l6 29h969q172 0 293.5 -112t121.5 -275q0 -95 -44 -185t-119 -157.5t-180.5 -108.5t-221.5 -41h-108l333 -625h271l-6 -28h-592l6 28h289l-332 625h-524l-111 -625h283l-7 -28h-589zM414 715h659q112 0 212.5 38t171 101.5t112 148.5 t41.5 175q0 154 -112 256t-275 102h-664z" />
<glyph unicode="S" horiz-adv-x="1380" d="M59 0l111 625h29l-52 -287q67 -137 212.5 -222t336.5 -85q205 0 323 100.5t118 253.5q0 46 -13.5 88t-33 73.5t-53 63t-62 52.5t-72 45t-71 37t-71.5 33t-61 28q-60 28 -101 49t-91.5 52t-84 62t-63.5 69.5t-44.5 85.5t-14.5 100q0 157 121.5 264.5t325.5 107.5 q175 0 317 -78.5t201 -189.5l49 270h28l-110 -624h-29l53 303q-38 116 -180 203.5t-329 87.5q-194 0 -306 -98.5t-112 -245.5q0 -59 21.5 -110.5t53.5 -88.5t87 -74.5t102 -62.5t119 -58q13 -6 48.5 -21.5t56.5 -25t58 -28t61.5 -33t57.5 -37.5t54.5 -45t45.5 -51t38 -59 t23 -67t9 -77q0 -165 -126.5 -274t-342.5 -109q-186 0 -332.5 81t-224.5 212l-51 -295h-29z" />
<glyph unicode="T" horiz-adv-x="1499" d="M186 1237l58 328h1335l-57 -328h-29l53 299h-624l-260 -1475h282l-6 -28h-592l6 28h281l258 1475h-623l-53 -299h-29z" />
<glyph unicode="U" horiz-adv-x="1853" d="M209 1536l6 29h590l-6 -29h-281l-170 -950q-7 -43 -7 -85q1 -67 19 -131q30 -104 97 -178t166.5 -117.5t214.5 -43.5q126 0 240.5 49.5t195.5 130t135 179t72 200.5l166 946h-281l6 29h592l-6 -29h-281l-168 -950q-14 -83 -52.5 -166.5t-100 -158.5t-139 -133t-176 -92 t-203.5 -34q-164 0 -293 77.5t-191 213.5q-43 95 -43 202q0 47 8 95l168 946h-278z" />
<glyph unicode="V" horiz-adv-x="1779" d="M111 1536l6 29h590l-7 -29h-303l379 -1499l903 1499h-305l6 29h592l-6 -29h-252l-932 -1542l-12 6l-14 -4l-389 1540h-256z" />
<glyph unicode="W" horiz-adv-x="2508" d="M123 1536l6 29h586l-6 -29h-306l232 -1493l731 1341l12 -6l15 2l260 -1337l755 1493h-307l6 29h590l-6 -29h-252l-780 -1542l-12 6l-15 -2l-262 1339l-731 -1343l-12 6l-15 -2l-237 1538h-252z" />
<glyph unicode="X" horiz-adv-x="1570" d="M-109 33l7 28h254l649 768l-346 707h-260l6 29h592l-7 -29h-301l336 -682l574 682h-299l6 29h592l-6 -29h-256l-598 -709l376 -766h260l-6 -28h-592l7 28h301l-365 742l-627 -742h299l-6 -28h-590z" />
<glyph unicode="Y" horiz-adv-x="1646" d="M121 1536l6 29h588l-6 -29h-301l409 -891l721 891h-301l6 29h592l-6 -29h-258l-744 -922l-98 -553h283l-6 -28h-592l6 28h280l99 555l-420 920h-258z" />
<glyph unicode="Z" horiz-adv-x="1476" d="M-2 57l1493 1479h-1141l-53 -299h-29l58 328h1200v-15l10 -10l-1493 -1479h1182l53 299h29l-58 -327h-1239v12z" />
<glyph unicode="[" horiz-adv-x="733" d="M61 -451l383 2182h418l-6 -29h-387l-375 -2124h387l-6 -29h-414z" />
<glyph unicode="\" horiz-adv-x="1357" d="M285 1749h32l750 -2218h-33z" />
<glyph unicode="]" horiz-adv-x="735" d="M-137 -451l6 29h387l375 2124h-387l6 29h414l-383 -2182h-418z" />
<glyph unicode="^" horiz-adv-x="1177" d="M176 868l567 738l13 -9l12 7l311 -748l-26 -12l-301 723l-551 -715z" />
<glyph unicode="_" horiz-adv-x="1423" d="M4 -240l6 29h1096l-6 -29h-1096z" />
<glyph unicode="`" horiz-adv-x="305" d="M-18 1599l16 23l414 -322l-17 -22z" />
<glyph unicode="a" horiz-adv-x="1265" d="M57 328q0 49 14.5 96t48.5 92.5t85 79.5t129.5 55t175.5 21q187 0 428 -76l23 119q6 46 6 85q-1 14 -1 28q-4 50 -26 86.5t-52 61t-73.5 39t-89 21t-98.5 6.5q-107 0 -217 -24t-168 -51l-13 24q57 30 172 55t226 25q46 0 88 -5.5t83.5 -17.5t74 -31t60.5 -47t42.5 -65.5 t20.5 -85.5q2 -15 1 -31q0 -36 -8 -77l-117 -650h281l-6 -28h-307l22 127q-207 -148 -438 -148q-96 0 -169.5 29t-115 76t-62 100.5t-20.5 110.5zM86 328q0 -54 18 -102.5t55.5 -91t106 -68t158.5 -25.5q239 0 444 160l66 366q-247 76 -424 76q-114 0 -200 -28t-132.5 -75 t-69 -100t-22.5 -112z" />
<glyph unicode="b" horiz-adv-x="1505" d="M-76 33l6 28h281l266 1524h-282l6 29h309l-150 -860q73 139 211.5 225t298.5 86q203 0 343.5 -143.5t140.5 -346.5q0 -150 -79.5 -280.5t-212 -206.5t-282.5 -76q-182 0 -315.5 116.5t-161.5 293.5l-67 -389h-312zM326 502q0 -195 130 -328t324 -133q145 0 270.5 71.5 t200 195t74.5 267.5q0 194 -130.5 327.5t-324.5 133.5q-144 0 -269.5 -71.5t-200 -194.5t-74.5 -268z" />
<glyph unicode="c" horiz-adv-x="1230" d="M109 500q0 113 47 218t125 181t183.5 121t217.5 45q122 0 228.5 -57t142.5 -150l39 217h28l-51 -291l-35 -196h-28l34 196q-3 110 -110 181t-248 71q-145 0 -270.5 -71.5t-200 -195.5t-74.5 -269q0 -195 130.5 -327t336.5 -132q222 0 418 145l18 -22 q-108 -79 -221.5 -115.5t-214.5 -36.5q-142 0 -256 66t-176.5 177.5t-62.5 244.5z" />
<glyph unicode="d" horiz-adv-x="1501" d="M109 502q0 150 79 280.5t211.5 206.5t282.5 76q184 0 318 -120t159 -300l166 940h-283l7 29h309l-273 -1553h281l-6 -28h-307l51 297q-73 -142 -212.5 -230t-299.5 -88q-133 0 -244.5 66t-175 178.5t-63.5 245.5zM137 502q0 -194 130.5 -327.5t324.5 -133.5 q145 0 270.5 71.5t200 195t74.5 267.5q0 194 -130.5 327.5t-324.5 133.5q-145 0 -270.5 -71.5t-200 -195t-74.5 -267.5z" />
<glyph unicode="e" horiz-adv-x="1177" d="M109 500q0 114 47.5 219t126.5 180.5t187 120.5t224 45q157 0 246.5 -73.5t89.5 -192.5q0 -107 -79.5 -185t-206.5 -115.5t-283 -37.5q-153 0 -324 35q2 -195 131.5 -325t341.5 -130q205 0 377 131l19 -22q-181 -138 -396 -138q-110 0 -204.5 38.5t-159 104.5t-101 155.5 t-36.5 189.5zM137 524q168 -35 324 -35q153 0 273.5 35t193.5 106t73 169q0 107 -81 172t-226 65t-271 -67.5t-202.5 -185.5t-83.5 -259z" />
<glyph unicode="f" horiz-adv-x="823" d="M-555 -287l29 -4q-2 -12 -2 -25q0 -34 12 -69q17 -48 52.5 -89t97 -67t137.5 -26q81 0 146.5 30t108.5 77t76 118.5t51.5 140.5t34.5 158l187 1057h-275l6 28h275l25 138q13 74 29 135t40.5 126.5t58.5 115t78.5 89.5t105.5 61.5t134 21.5q83 0 150 -29t106 -75t58 -100 q13 -41 13 -80q0 -13 -1 -26l-29 4q2 13 2 27q0 24 -6 48q-9 39 -33 75t-59.5 64.5t-87.5 45.5t-113 17q-81 0 -146.5 -30t-108.5 -77t-76.5 -118.5t-52 -141t-34.5 -157.5l-24 -134h407l-6 -28h-405l-189 -1061q-13 -74 -29 -135t-40.5 -126.5t-58.5 -115t-78.5 -89.5 t-105.5 -61.5t-134 -21.5q-83 0 -150.5 29t-106.5 74.5t-58 99.5q-13 39 -13 77q0 15 2 29z" />
<glyph unicode="g" horiz-adv-x="1495" d="M109 502q0 150 79 280.5t211.5 206.5t282.5 76q181 0 315 -117.5t162 -292.5l68 387h309l-6 -28h-279l-198 -1135q-10 -57 -24 -111t-38 -116.5t-54 -116t-74 -104t-96 -86t-122.5 -57t-150.5 -21.5q-97 0 -173.5 31t-120.5 81t-66.5 106t-22.5 112q0 68 22 127l27 -13 q-21 -60 -21 -114q0 -42 12 -83.5t39.5 -81t67.5 -70t101 -49t135 -18.5q88 0 163 26t128.5 73.5t94.5 103.5t69.5 126.5t45.5 131t29 127.5l76 439q-73 -139 -211 -224.5t-297 -85.5q-133 0 -244.5 66t-175 178.5t-63.5 245.5zM137 502q0 -194 130.5 -327.5t324.5 -133.5 q145 0 270.5 71.5t200 195t74.5 267.5q0 194 -130.5 327.5t-324.5 133.5q-145 0 -270.5 -71.5t-200 -195t-74.5 -267.5z" />
<glyph unicode="h" horiz-adv-x="1429" d="M-74 33l6 28h279l270 1524h-282l6 29h309l-139 -787q102 109 223.5 173.5t241.5 64.5q69 0 129.5 -24.5t109.5 -77.5t65 -138q8 -41 8 -90q0 -54 -9 -117l-99 -557h281l-6 -28h-307l102 590q9 63 9 114q0 43 -6 79q-14 78 -58.5 127t-99 71t-119.5 22q-123 0 -246 -70 t-227 -192l-127 -713h280l-6 -28h-588z" />
<glyph unicode="i" horiz-adv-x="692" d="M-39 33l6 28h279l170 953h-283l6 28h310l-175 -981h281l-6 -28h-588zM422 1419q0 26 18.5 45t44.5 19t45 -19t19 -45t-19 -44.5t-45 -18.5t-44.5 18.5t-18.5 44.5zM451 1419q0 -15 10 -25t24 -10q15 0 25 10.5t10 24.5q0 15 -10.5 25t-24.5 10q-15 0 -24.5 -10.5 t-9.5 -24.5z" />
<glyph unicode="j" horiz-adv-x="602" d="M-487 -332q0 64 22 123l27 -12q-21 -60 -21 -111q0 -95 63.5 -165t188.5 -70q57 0 107.5 18.5t87.5 48.5t69 74t53.5 88.5t40 98.5t29 97.5t19.5 92.5l188 1063h-283l7 28h309l-193 -1095q-13 -72 -30.5 -136.5t-53 -142.5t-80 -133t-115 -93t-155.5 -38q-71 0 -126.5 24 t-88 63t-49 84.5t-16.5 92.5zM346 1419q0 26 19 45t45 19t44.5 -19t18.5 -45t-18.5 -44.5t-44.5 -18.5t-45 18.5t-19 44.5zM375 1419q0 -15 10.5 -25t24.5 -10q15 0 24.5 10.5t9.5 24.5q0 15 -10 25t-24 10q-15 0 -25 -10.5t-10 -24.5z" />
<glyph unicode="k" horiz-adv-x="1318" d="M-74 33l6 28h279l270 1524h-282l6 29h309l-141 -793q135 125 267.5 184.5t244.5 59.5q124 0 204 -72.5t80 -175.5q0 -129 -117.5 -237t-359.5 -174l189 -345h288l-6 -28h-299l-205 377l13 6l-4 14q244 61 358.5 163t114.5 224q0 94 -70.5 156.5t-185.5 62.5 q-253 0 -520 -264l-125 -711h252l-7 -28h-559z" />
<glyph unicode="l" horiz-adv-x="698" d="M125 1585l4 29h309l-219 -1247q-9 -48 -9 -88q0 -23 3 -45q9 -56 27.5 -93.5t49 -59.5t59 -31t57.5 -9q46 0 86.5 17.5t91.5 58.5l18 -21q-100 -84 -196 -84q-31 0 -63.5 10.5t-67.5 35t-57 65.5t-33 103q-4 25 -4 53q0 42 9 92l216 1214h-281z" />
<glyph unicode="m" horiz-adv-x="2121" d="M-37 33l6 28h279l127 730l39 223h-283l6 28h309l-36 -208q92 106 197 168.5t208 62.5q47 0 94 -14t91.5 -43t76.5 -81t41 -120q97 121 206 189.5t218 68.5q47 0 92.5 -12.5t91.5 -41t75 -75t43 -113.5q6 -30 6 -65q0 -42 -9 -92l-106 -605h280l-6 -28h-307l110 637 q9 48 9 89q0 31 -5 57q-12 62 -37.5 104t-67 68t-83.5 37t-86 11q-218 0 -422 -274q0 -49 -8 -96l-106 -605h280l-6 -28h-307l110 637q7 52 7 95v29q-4 54 -24.5 95t-47.5 69t-62.5 45.5t-70 25t-70.5 7.5q-108 0 -214 -69t-200 -189l-125 -717h281l-6 -28h-588z" />
<glyph unicode="n" horiz-adv-x="1464" d="M-39 33l6 28h279l170 953h-283l6 28h310l-39 -215q102 109 223.5 173.5t240.5 64.5q55 0 105 -15.5t94.5 -48.5t72.5 -85.5t39 -126.5q4 -28 4 -59q0 -51 -11 -112l-99 -557h281l-6 -28h-307l102 590q9 62 9 113q0 44 -6 80q-14 78 -59 127t-99.5 71t-119.5 22 q-123 0 -246 -70t-227 -192l-127 -713h281l-6 -28h-588z" />
<glyph unicode="o" horiz-adv-x="1316" d="M109 502q0 150 79 280.5t211.5 206.5t282.5 76q133 0 244.5 -66t175 -178.5t63.5 -245.5q0 -150 -79 -280.5t-211.5 -206.5t-282.5 -76q-133 0 -244.5 66t-175 178.5t-63.5 245.5zM137 502q0 -194 130.5 -327.5t324.5 -133.5q145 0 270.5 71.5t200 195t74.5 267.5 q0 194 -130.5 327.5t-324.5 133.5q-145 0 -270.5 -71.5t-200 -195t-74.5 -267.5z" />
<glyph unicode="p" horiz-adv-x="1499" d="M-182 -545l6 29h278l269 1530h-283l6 28h309l-51 -294q73 142 212 229.5t300 87.5q203 0 343.5 -143.5t140.5 -346.5q0 -150 -79.5 -280.5t-212 -206.5t-282.5 -76q-184 0 -318 118.5t-161 295.5l-164 -942h281l-6 -29h-588zM319 502q0 -194 130.5 -327.5t324.5 -133.5 q145 0 270.5 71.5t200 195t74.5 267.5q0 194 -130.5 327.5t-324.5 133.5q-145 0 -270.5 -71.5t-200 -195t-74.5 -267.5z" />
<glyph unicode="q" horiz-adv-x="1470" d="M109 502q0 150 79 280.5t211.5 206.5t282.5 76q183 0 316.5 -118.5t160.5 -297.5l70 393h309l-6 -28h-279l-270 -1530h281l-7 -29h-587l6 29h278l148 842q-73 -140 -212 -227t-298 -87q-133 0 -244.5 66t-175 178.5t-63.5 245.5zM137 502q0 -194 130.5 -327.5 t324.5 -133.5q145 0 270.5 71.5t200 195t74.5 267.5q0 194 -130.5 327.5t-324.5 133.5q-145 0 -270.5 -71.5t-200 -195t-74.5 -267.5z" />
<glyph unicode="r" horiz-adv-x="1058" d="M-49 33l6 28h281l170 953h-283l6 28h309l-53 -301q32 46 69 88.5t85.5 87t104.5 76.5q55 33 116 53q58 20 124 19h6q70 -1 140 -27l-57 -323h-29l53 303q-53 18 -106 18h-17q-61 -4 -114.5 -19.5t-104 -47t-92.5 -67t-79 -78.5t-64 -81t-47 -75l-109 -607h281l-6 -28 h-590z" />
<glyph unicode="s" horiz-adv-x="1239" d="M-180 33l6 28h176l631 891q-42 68 -42 131q1 21 5 39q18 80 113 158l18 -20q-95 -81 -107 -152q-2 -11 -2 -22q0 -63 56 -142q32 -46 104 -129.5t121.5 -144.5t91 -151.5t41.5 -178.5q0 -135 -97.5 -231.5t-232.5 -96.5q-121 0 -241.5 65.5t-267.5 201.5l-175 -246h-198z M209 303q145 -136 260 -199t233 -63q126 0 214 86.5t88 212.5q0 67 -24 133t-66.5 126t-85.5 111t-96 112t-83 104z" />
<glyph unicode="t" horiz-adv-x="921" d="M76 1014l6 28h278l74 424l33 15l-78 -439h424l-6 -28h-422l-113 -639q-7 -48 -7 -89q-1 -36 5 -66q12 -64 47 -103.5t77 -57.5t89 -18q48 0 94 17.5t88.5 55t68.5 108t26 165.5h28q0 -101 -29 -177t-76.5 -117.5t-98 -61t-101.5 -19.5q-52 0 -99 20t-87 64t-54 114 q-7 34 -7 74q0 43 8 95l110 635h-278z" />
<glyph unicode="u" horiz-adv-x="1417" d="M57 1014l6 28h308l-103 -589q-9 -62 -9 -113q1 -44 7 -80q14 -78 58.5 -127.5t99 -71.5t119.5 -22q122 0 246 69.5t227 190.5l127 715h-283l6 28h310l-175 -981h281l-6 -28h-307l37 213q-102 -108 -223.5 -172t-239.5 -64q-69 0 -129.5 24.5t-109.5 77.5q-50 52 -66 138 q-8 41 -7 90q0 53 9 117l98 557h-281z" />
<glyph unicode="v" horiz-adv-x="1376" d="M45 1014l6 28h567l-6 -28h-293l254 -977l598 977h-292l6 28h569l-6 -28h-242l-626 -1020l-13 6l-14 -4l-264 1018h-244z" />
<glyph unicode="w" horiz-adv-x="1931" d="M47 1014l6 28h568l-7 -28h-295l166 -973l510 881l13 -9l14 5l199 -881l510 977h-297l6 28h569l-6 -28h-242l-534 -1022l-13 6l-14 -2l-199 878l-512 -882l-14 8l-12 -2l-172 1016h-244z" />
<glyph unicode="x" horiz-adv-x="1310" d="M-63 33l6 28h223l452 492l-264 461h-227l6 28h508l-6 -28h-248l252 -441l403 441h-245l6 28h508l-6 -28h-224l-428 -465l277 -488h229l-6 -28h-508l6 28h246l-264 465l-428 -465h244l-7 -28h-505z" />
<glyph unicode="y" horiz-adv-x="1388" d="M-319 -389l24 12q41 -93 116.5 -132.5t162.5 -39.5q135 0 259 99t257 319l61 102l-268 1043h-246l6 28h570l-7 -28h-292l260 -1010l614 1010h-303l6 28h569l-6 -28h-231l-709 -1161q-137 -224 -268 -327.5t-272 -103.5q-42 0 -83 9.5t-83 29.5t-78 58.5t-59 91.5z" />
<glyph unicode="z" horiz-adv-x="1208" d="M10 57l1092 957h-844l-51 -297h-29l55 325h908v-14l10 -10l-1094 -957h867l53 297h29l-58 -325h-928v14z" />
<glyph unicode="{" horiz-adv-x="665" d="M68 -209q0 50 19 107.5t39 96.5t58 105q13 22 41 69.5t41 71.5t30.5 60t24.5 65.5t7 57.5q0 78 -56 137.5t-161 63.5h-11h-32l6 28h26q72 0 133 25t101 66t62 92t22 104q0 21 -4.5 53t-9.5 57t-15 69t-14 65q-25 119 -25 186q0 50 10.5 98.5t36 96.5t62.5 84.5t95 59 t130 22.5h90l-6 -29h-84q-81 0 -142.5 -29.5t-95.5 -79t-50.5 -106t-16.5 -117.5q0 -68 24 -182q3 -15 11 -50.5t12 -55.5t9.5 -49t8 -51.5t2.5 -41.5q0 -98 -67.5 -185t-179.5 -118q75 -26 116 -86.5t41 -126.5q0 -30 -6.5 -60.5t-26.5 -72.5t-30 -61t-43.5 -76t-40.5 -68 q-56 -94 -84.5 -161.5t-28.5 -133.5q0 -90 55 -151.5t173 -61.5h69l-6 -29h-63q-67 0 -118 21.5t-80 57t-43.5 77t-14.5 86.5z" />
<glyph unicode="|" horiz-adv-x="546" d="M49 -539l412 2358h28l-411 -2358h-29z" />
<glyph unicode="}" horiz-adv-x="667" d="M-117 -451l6 29h84q66 0 119 20t87 52.5t57 76.5t33 89.5t10 93.5q0 63 -25 182q-3 15 -11 50.5t-12 55.5t-9.5 49t-8 51.5t-2.5 41.5q0 97 68 184.5t180 118.5q-75 26 -116.5 86.5t-41.5 126.5q0 30 7 61t26.5 71.5t30.5 62t43 75t41 68.5q55 93 83.5 161t28.5 134 q0 90 -54.5 151.5t-172.5 61.5h-70l6 29h64q67 0 118 -21.5t80 -57t43.5 -77t14.5 -86.5q0 -50 -19.5 -108t-39 -96t-58.5 -105q-12 -20 -40.5 -69t-41 -72t-30 -60t-24.5 -66t-7 -57q0 -78 56 -137.5t161 -63.5h10h33l-6 -28h-27q-72 0 -133 -25t-100.5 -66.5t-61.5 -92 t-22 -103.5q0 -21 4.5 -53t9.5 -57t15 -69t14 -65q24 -114 24 -186q0 -50 -10.5 -98.5t-36 -96.5t-62.5 -84.5t-95 -59t-130 -22.5h-90z" />
<glyph unicode="~" horiz-adv-x="1081" d="M207 666q15 94 68.5 161.5t140.5 67.5q44 0 81.5 -25.5t77.5 -78.5q37 -49 68.5 -71t69.5 -22q76 0 119.5 57.5t58.5 147.5l29 -6q-15 -94 -67.5 -160.5t-139.5 -66.5q-82 0 -162 104q-37 49 -67 70.5t-68 21.5q-76 0 -120.5 -59t-59.5 -148z" />
<glyph unicode="&#xa1;" horiz-adv-x="577" d="M160 0l213 1198h28l-213 -1198h-28zM383 1526q0 26 18.5 44.5t44.5 18.5t45 -18.5t19 -44.5t-19 -45t-45 -19t-44.5 19t-18.5 45zM412 1526q0 -15 10 -25t24 -10q15 0 25 10.5t10 24.5q0 15 -10.5 25t-24.5 10q-15 0 -24.5 -10.5t-9.5 -24.5z" />
<glyph unicode="&#xa2;" horiz-adv-x="1247" d="M150 588q0 150 79 280.5t211.5 206.5t282.5 76h27l41 231h28l-41 -235q110 -12 195 -64.5t122.5 -142t-8.5 -209.5l-26 10q41 107 6 188t-114 130t-181 61l-174 -993h35q208 0 391 145l16 -22q-194 -152 -407 -152h-39l-41 -231h-29l41 235q-180 25 -297.5 162.5 t-117.5 323.5zM178 588q0 -178 110 -306.5t281 -150.5l174 991h-20q-145 0 -270.5 -71.5t-200 -195t-74.5 -267.5z" />
<glyph unicode="&#xa3;" horiz-adv-x="1318" d="M-8 43q89 34 137 56t121.5 71.5t112 105t68.5 148t30 209.5v29h-254l6 28h246q-3 65 -19 210t-16 206q0 92 25.5 176t75 152t131.5 108.5t186 40.5q111 0 189 -46t112.5 -116t34.5 -155h-29q0 126 -77 207t-230 81q-98 0 -174 -37t-122 -100.5t-69.5 -142.5t-23.5 -168 q0 -58 15.5 -203.5t18.5 -212.5h471l-6 -28h-463v-29q0 -198 -70.5 -320t-193.5 -196q89 3 202 -21.5t218 -50t170 -25.5q178 0 272 156l25 -14q-18 -30 -41.5 -56t-59 -53.5t-86.5 -44t-110 -16.5q-61 0 -150.5 19t-163.5 39t-170 32.5t-169 -0.5q-45 -23 -160 -68z" />
<glyph unicode="&#xa5;" horiz-adv-x="1878" d="M231 1536l7 29h587l-6 -29h-301l410 -891l721 891h-301l6 29h592l-7 -29h-258l-565 -700h320l-6 -29h-338l-154 -193l-27 -149h461l-6 -29h-461l-65 -375h282l-6 -28h-592l6 28h281l66 375h-459l6 29h457l28 151l-88 191h-342l6 29h324l-320 700h-258z" />
<glyph unicode="&#xa6;" horiz-adv-x="557" d="M53 -539l183 1037h28l-182 -1037h-29zM285 782l182 1037h29l-183 -1037h-28z" />
<glyph unicode="&#xa7;" horiz-adv-x="1075" d="M141 326l29 -7q-12 -68 0 -123.5t42.5 -92.5t75 -62.5t95 -37t106.5 -11.5q131 0 206 66t75 165q0 49 -19.5 89t-60.5 73t-79 55t-101 52q-6 3 -33.5 14.5t-39.5 17t-40 18.5t-43 22.5t-39 26t-38 31t-31.5 35t-26.5 41t-15.5 46.5t-6.5 53q0 106 93 183.5t247 90.5 q-105 52 -162.5 112.5t-57.5 151.5q0 109 85.5 184.5t226.5 75.5q58 0 112 -12.5t103 -41.5t82.5 -70t47.5 -102.5t1 -135.5l-29 4q15 85 -6.5 150.5t-70 103.5t-109.5 57t-131 19q-132 0 -207.5 -66.5t-75.5 -165.5q0 -49 19.5 -89t60.5 -73t79.5 -54.5t102.5 -51.5 q8 -4 33 -14.5t39 -16.5t40 -19t43 -23t40 -26t38 -30.5t32 -35t26.5 -41t16 -46.5t6.5 -53q0 -107 -94 -185t-248 -90q103 -52 161 -113t58 -151q0 -108 -85 -184t-225 -76q-74 0 -140.5 21.5t-120.5 63.5t-78.5 114t-8.5 164zM225 797q0 -31 9 -58.5t22 -49t36 -42.5 t42 -35t49 -30t48.5 -24.5t48.5 -22t42 -19.5l4 -2q164 0 265.5 72t101.5 176q0 35 -10.5 65.5t-31.5 55.5t-42 44t-54.5 37.5t-54.5 29.5t-56.5 26.5t-47.5 21.5l-4 2q-166 0 -266.5 -71.5t-100.5 -175.5z" />
<glyph unicode="&#xa8;" horiz-adv-x="542" d="M-59 1389q0 26 18.5 44.5t44.5 18.5t45 -18.5t19 -44.5t-19 -45t-45 -19t-44.5 19t-18.5 45zM-31 1389q0 -15 10.5 -25t24.5 -10q15 0 25 10.5t10 24.5q0 15 -10.5 24.5t-24.5 9.5q-15 0 -25 -10t-10 -24zM350 1389q0 26 19 44.5t45 18.5t44.5 -18.5t18.5 -44.5 t-18.5 -45t-44.5 -19t-45 19t-19 45zM379 1389q0 -15 10.5 -25t24.5 -10q15 0 25 10.5t10 24.5q0 15 -10.5 24.5t-24.5 9.5q-15 0 -25 -10t-10 -24z" />
<glyph unicode="&#xa9;" horiz-adv-x="1857" d="M184 743q0 165 68.5 317.5t181.5 262.5t266.5 176t317.5 66q196 0 358 -95.5t254 -258.5t92 -357q0 -165 -68.5 -317t-182 -262.5t-267 -176t-317.5 -65.5q-118 0 -226 36t-194 101.5t-150 152.5t-98.5 195.5t-34.5 224.5zM213 743q0 -188 87 -344.5t242 -247t345 -90.5 q213 0 399 106.5t297 290t111 396.5q0 188 -87.5 344.5t-243 247t-345.5 90.5q-159 0 -307.5 -63t-257.5 -169.5t-174.5 -253.5t-65.5 -307zM588 770q0 108 58.5 203t155 151t204.5 56q85 0 157.5 -38t102.5 -102l26 156h29l-59 -340h-29l20 115q-3 80 -74.5 130t-172.5 50 q-156 0 -273 -112.5t-117 -268.5q0 -137 93.5 -232.5t230.5 -95.5q143 0 274 103l17 -23q-139 -108 -291 -108q-147 0 -249.5 104.5t-102.5 251.5z" />
<glyph unicode="&#xaa;" horiz-adv-x="1067" d="M258 1262q0 128 96 221.5t224 93.5q94 0 164.5 -55.5t95.5 -143.5l32 187h189l-6 -29h-158l-90 -504h158l-7 -28h-184l23 126q-44 -65 -116 -103t-151 -38q-115 0 -192.5 79t-77.5 194zM287 1262q0 -105 68 -174.5t173 -69.5q119 0 205 83t86 202q0 105 -68 175t-173 70 q-119 0 -205 -83.5t-86 -202.5z" />
<glyph unicode="&#xab;" horiz-adv-x="1179" d="M139 621l13 8l-11 10l461 412l19 -23l-451 -401l307 -402l-22 -16zM610 621l13 8l-11 10l461 412l19 -23l-451 -401l307 -402l-22 -16z" />
<glyph unicode="&#xad;" horiz-adv-x="821" d="M154 614l6 29h493l-6 -29h-493z" />
<glyph unicode="&#xae;" horiz-adv-x="1261" d="M231 1087q0 101 43 195.5t113.5 162.5t166 109t196.5 41q121 0 221.5 -59.5t157.5 -161t57 -221.5q0 -135 -72 -252.5t-191.5 -186.5t-254.5 -69q-184 0 -310.5 129t-126.5 313zM260 1087q0 -174 117 -293.5t291 -119.5q129 0 242 64t180 175t67 240q0 174 -116.5 294 t-290.5 120q-129 0 -242 -64.5t-180.5 -175.5t-67.5 -240zM451 913l6 29h90l65 379h-92l6 29h287q51 0 87 -34t36 -83q0 -55 -48 -98t-116 -43h-10l59 -150h103l-6 -29h-211l6 29h78l-62 150h-127l-27 -150h93l-6 -29h-211zM608 1120h164q58 0 96.5 33.5t38.5 79.5 q0 39 -26 63.5t-68 24.5h-170z" />
<glyph unicode="&#xaf;" horiz-adv-x="796" d="M76 1337l6 29h639l-6 -29h-639z" />
<glyph unicode="&#xb0;" horiz-adv-x="899" d="M256 1255q0 120 85.5 206.5t205.5 86.5t206.5 -86.5t86.5 -206.5t-86.5 -205t-206.5 -85t-205.5 85t-85.5 205zM285 1255q0 -110 76 -186t186 -76t187 76t77 186t-77 187.5t-187 77.5t-186 -77t-76 -188z" />
<glyph unicode="&#xb1;" horiz-adv-x="1234" d="M80 84l6 29h887l-6 -29h-887zM197 735l6 29h426l76 428h28l-76 -428h430l-6 -29h-428l-75 -430h-29l76 430h-428z" />
<glyph unicode="&#xb2;" horiz-adv-x="843" d="M119 686q15 86 51 154.5t89.5 118.5t100 80.5t111.5 64.5q19 10 58 29t59 29.5t53 29t51 32.5t41 35t34.5 41t19.5 46t8 55q0 89 -65 142.5t-165 53.5q-51 0 -98 -15t-87.5 -45.5t-63.5 -85t-19 -126.5h-29q-4 78 22.5 138t71.5 94.5t97 51.5t106 17q107 0 182.5 -63 t75.5 -162q0 -32 -9 -61.5t-21.5 -51.5t-36.5 -45.5t-43.5 -38.5t-54 -35t-56 -30.5t-61 -30t-58.5 -29.5q-61 -32 -102.5 -59t-90.5 -70t-83 -100.5t-51 -128.5q57 41 141 41q54 0 129 -23q90 -28 131 -28q94 0 143.5 71t18.5 183l29 8q34 -126 -25 -208.5t-166 -82.5 q-46 0 -139 29q-71 22 -121 22q-92 0 -154 -59l-10 10z" />
<glyph unicode="&#xb3;" horiz-adv-x="823" d="M94 748l17 22q144 -108 303 -108q134 0 218.5 68.5t84.5 182.5q0 105 -84.5 172.5t-265.5 71.5h-21l6 29q94 0 168 13.5t120 36t76 53.5t42 62t12 66q0 73 -57 126.5t-158 53.5q-102 0 -167 -57t-77 -162l-28 4q12 114 86.5 179t185.5 65t177.5 -64t66.5 -145 q0 -86 -68 -154t-221 -94q119 -28 177 -95.5t58 -160.5q0 -124 -95 -202t-236 -78q-163 0 -320 115z" />
<glyph unicode="&#xb4;" horiz-adv-x="403" d="M-57 1307l522 321l14 -24l-522 -322z" />
<glyph unicode="&#xb5;" horiz-adv-x="1552" d="M135 1014l6 28h308l-105 -596q-16 -113 -2.5 -190.5t56.5 -125.5t96 -69.5t116 -21.5q132 0 265.5 112.5t248.5 323.5l97 539h-283l6 28h309l-102 -577l-72 -404h283l-6 -28h-309l63 362q-112 -184 -243 -284.5t-257 -100.5q-70 0 -130.5 24.5t-107.5 81.5t-61 140 l-137 -786h-29l271 1544h-281z" />
<glyph unicode="&#xb6;" horiz-adv-x="1562" d="M193 1026q0 140 80 265.5t210 199.5t271 74h852l-7 -29h-278l-260 -1475h282l-6 -28h-999l6 28h281l98 562h-131q-172 0 -285.5 116.5t-113.5 286.5zM221 1026q0 -161 104 -268t267 -107h135l156 885h-129q-101 0 -198.5 -41.5t-171 -110.5t-118.5 -163.5t-45 -194.5z M653 61h379l258 1475h-377z" />
<glyph unicode="&#xb7;" horiz-adv-x="518" d="M188 629q0 26 19 44.5t45 18.5t44.5 -18.5t18.5 -44.5t-18.5 -45t-44.5 -19t-45 19t-19 45zM217 629q0 -15 10.5 -25t24.5 -10q15 0 25 10.5t10 24.5q0 15 -10.5 25t-24.5 10q-15 0 -25 -10.5t-10 -24.5z" />
<glyph unicode="&#xb8;" horiz-adv-x="587" d="M197 -518l12 26q13 -6 37.5 -14.5t97 -22.5t141.5 -14q107 0 166.5 52t59.5 139q0 79 -68 136t-199 75l2 14l-14 2l29 160l28 -6l-26 -144q130 -20 203 -85t73 -152q0 -96 -69 -157.5t-185 -61.5q-71 0 -143 13.5t-108 26.5z" />
<glyph unicode="&#xb9;" horiz-adv-x="552" d="M131 735l6 29h162l145 831l-180 -67l-8 28l203 78l4 -14l14 -2l-149 -854h159l-6 -29h-350z" />
<glyph unicode="&#xba;" horiz-adv-x="894" d="M258 1262q0 128 96 221.5t224 93.5q115 0 192.5 -79.5t77.5 -194.5q0 -128 -96 -221t-224 -93q-115 0 -192.5 79t-77.5 194zM287 1262q0 -105 68 -174.5t173 -69.5q119 0 205 83t86 202q0 105 -68 175t-173 70q-119 0 -205 -83.5t-86 -202.5z" />
<glyph unicode="&#xbb;" horiz-adv-x="1181" d="M80 236l450 401l-307 401l23 17l315 -412l-12 -8l10 -10l-461 -412zM551 236l450 401l-307 401l23 17l315 -412l-12 -8l10 -10l-461 -412z" />
<glyph unicode="&#xbc;" horiz-adv-x="1908" d="M156 735l6 29h162l145 831l-180 -67l-8 28l202 78l4 -14l15 -2l-150 -854h160l-6 -29h-350zM215 0l1274 1597h35l-1274 -1597h-35zM967 303l651 758l22 -19l-600 -698q72 29 144 29q64 0 169 -21t148 -24l62 331h28l-61 -333h20q60 0 100.5 15.5t80.5 53.5l20 -20 q-81 -78 -201 -78h-24l-43 -236h162l-7 -28h-350l6 28h160l43 238q-48 3 -150.5 24t-162.5 21q-111 0 -199 -63l-8 12z" />
<glyph unicode="&#xbd;" horiz-adv-x="1863" d="M137 735l6 29h162l146 831l-181 -67l-8 28l203 78l4 -14l14 -2l-149 -854h160l-7 -29h-350zM207 0l1274 1597h35l-1274 -1597h-35zM1012 2q15 86 51 154.5t89.5 118.5t100 80.5t111.5 64.5q19 10 58 29t59 29.5t53 29t51 32.5t41 35t34.5 41t19.5 46t8 55q0 89 -65 142.5 t-165 53.5q-51 0 -98 -15t-87.5 -45.5t-63.5 -85t-19 -126.5h-29q-4 78 22.5 138t71.5 94.5t97 51.5t106 17q107 0 182.5 -63t75.5 -162q0 -32 -9 -61.5t-21.5 -51.5t-36.5 -45.5t-43.5 -38.5t-54 -35t-56 -30.5t-61 -30t-58.5 -29.5q-61 -32 -102.5 -59t-90.5 -70 t-83 -100.5t-51 -128.5q57 41 141 41q54 0 129 -23q90 -28 131 -28q94 0 143.5 71t18.5 183l28 8q34 -126 -24.5 -208.5t-165.5 -82.5q-46 0 -139 29q-71 22 -121 22q-92 0 -154 -59l-10 10z" />
<glyph unicode="&#xbe;" horiz-adv-x="2164" d="M139 748l17 22q144 -108 303 -108q134 0 218.5 68.5t84.5 182.5q0 105 -84.5 172.5t-265.5 71.5h-21l6 29q94 0 168 13.5t120 36t76 53.5t42 62t12 66q0 73 -57 126.5t-158 53.5q-102 0 -167 -57t-77 -162l-28 4q12 114 86.5 179t185.5 65t177.5 -64t66.5 -145 q0 -86 -68 -154t-221 -94q120 -28 178 -96t58 -160q0 -124 -95.5 -202t-236.5 -78q-163 0 -320 115zM471 0l1274 1597h35l-1274 -1597h-35zM1223 303l651 758l22 -19l-600 -698q72 29 144 29q64 0 169 -21t148 -24l62 331h28l-61 -333h20q60 0 100.5 15.5t80.5 53.5l20 -20 q-81 -78 -201 -78h-24l-43 -236h162l-7 -28h-350l6 28h160l43 238q-48 3 -150.5 24t-162.5 21q-111 0 -199 -63l-8 12z" />
<glyph unicode="&#xbf;" horiz-adv-x="1015" d="M68 307q0 61 21 116t50.5 94t80 80t90 66.5t100.5 59.5q147 84 196 124q113 91 97 197q0 5 -1 9l-12 61l29 4l12 -61q9 -47 -3.5 -90.5t-36 -75.5t-68.5 -66.5t-81.5 -57.5t-94.5 -56q-15 -9 -23 -13q-50 -29 -82 -49t-75 -50.5t-69.5 -59t-52 -64.5t-37.5 -78.5 t-12 -89.5q0 -120 83.5 -198t223.5 -78q155 0 270 100t128 258l28 -2q-9 -111 -70.5 -200t-155.5 -137t-200 -48q-149 0 -242 88t-93 217zM690 1526q0 26 19 44.5t45 18.5t44.5 -18.5t18.5 -44.5t-18.5 -45t-44.5 -19t-45 19t-19 45zM719 1526q0 -15 10.5 -25t24.5 -10 q15 0 24.5 10.5t9.5 24.5q0 15 -10 25t-24 10q-15 0 -25 -10.5t-10 -24.5z" />
<glyph unicode="&#xc0;" d="M-145 33l6 28h254l932 1545l12 -9l14 5l387 -1541h258l-6 -28h-592l6 28h304l-119 471h-879l-285 -471h306l-7 -28h-591zM451 561h854l-252 998zM895 2071l16 22l414 -321l-16 -23z" />
<glyph unicode="&#xc1;" d="M-145 33l6 28h254l932 1545l12 -9l14 5l387 -1541h258l-6 -28h-592l6 28h304l-119 471h-879l-285 -471h306l-7 -28h-591zM451 561h854l-252 998zM842 1778l522 321l14 -24l-522 -322z" />
<glyph unicode="&#xc2;" d="M-145 33l6 28h254l932 1545l12 -9l14 5l387 -1541h258l-6 -28h-592l6 28h304l-119 471h-879l-285 -471h306l-7 -28h-591zM451 561h854l-252 998zM766 1796l364 234l279 -236l-16 -20l-267 219l-344 -221z" />
<glyph unicode="&#xc3;" d="M-145 33l6 28h254l932 1545l12 -9l14 5l387 -1541h258l-6 -28h-592l6 28h304l-119 471h-879l-285 -471h306l-7 -28h-591zM451 561h854l-252 998zM750 1774q15 94 68 161.5t140 67.5q81 0 160 -105q37 -48 68 -70t69 -22q76 0 120 58t59 147l28 -6q-15 -94 -67.5 -160.5 t-139.5 -66.5q-81 0 -161 104q-37 49 -67.5 70.5t-68.5 21.5q-76 0 -120.5 -59t-59.5 -148z" />
<glyph unicode="&#xc4;" d="M-145 33l6 28h254l932 1545l12 -9l14 5l387 -1541h258l-6 -28h-592l6 28h304l-119 471h-879l-285 -471h306l-7 -28h-591zM451 561h854l-252 998zM834 1860q0 26 18.5 44.5t44.5 18.5t45 -18.5t19 -44.5t-19 -45t-45 -19t-44.5 19t-18.5 45zM862 1860q0 -15 10.5 -25 t24.5 -10q15 0 25 10.5t10 24.5q0 15 -10.5 24.5t-24.5 9.5q-15 0 -25 -10t-10 -24zM1243 1860q0 26 19 44.5t45 18.5t44.5 -18.5t18.5 -44.5t-18.5 -45t-44.5 -19t-45 19t-19 45zM1272 1860q0 -15 10.5 -25t24.5 -10q15 0 24.5 10.5t9.5 24.5q0 15 -10 24.5t-24 9.5 q-15 0 -25 -10t-10 -24z" />
<glyph unicode="&#xc5;" d="M-145 33l6 28h254l927 1538q-64 15 -106.5 68.5t-42.5 120.5q0 78 57 135t135 57t135.5 -57t57.5 -135t-57.5 -135.5t-135.5 -57.5h-12l387 -1534h258l-6 -28h-592l6 28h304l-119 471h-879l-285 -471h306l-7 -28h-591zM451 561h854l-252 998zM922 1788q0 -69 47 -116.5 t116 -47.5t116.5 47.5t47.5 116.5t-47.5 116.5t-116.5 47.5t-116 -47.5t-47 -116.5z" />
<glyph unicode="&#xc6;" horiz-adv-x="2482" d="M-152 33l7 28h254l1302 1475h-237l6 29h1310l-57 -328h-29l54 299h-920l-125 -707h725l-6 -28h-723l-131 -740h936l53 297h29l-58 -325h-1275l6 28h280l84 484h-760l-428 -484h299l-6 -28h-590zM598 573h741l168 963h-57z" />
<glyph unicode="&#xc7;" horiz-adv-x="1691" d="M156 741q0 171 71 329t189 273t277.5 183.5t330.5 68.5q129 0 245.5 -40.5t200.5 -118.5t113 -179l62 340h28l-76 -426l-45 -256h-28l45 256q-5 118 -81.5 209.5t-198.5 139t-265 47.5q-166 0 -321 -66t-268.5 -176.5t-182 -264t-68.5 -319.5q0 -147 53.5 -278 t146.5 -226t224 -150.5t279 -55.5q167 0 307.5 50.5t282.5 172.5l18 -23q-148 -124 -293.5 -176.5t-314.5 -52.5q-57 0 -109 6l-26 -141q130 -20 203 -85.5t73 -152.5q0 -96 -69 -157.5t-185 -61.5q-71 0 -143.5 13t-108.5 27l-37 13l13 27q13 -6 37.5 -14.5t97 -22.5 t141.5 -14q107 0 166 52t59 138q0 79 -67.5 136t-198.5 75l2 15l-14 2l29 157q-171 31 -306.5 134t-211.5 258t-76 335z" />
<glyph unicode="&#xc8;" horiz-adv-x="1501" d="M-14 33l6 28h278l258 1475h-280l6 29h1257l-57 -328h-29l54 299h-920l-125 -707h725l-6 -28h-723l-131 -740h934l53 299h29l-58 -327h-1271zM793 2068l16 23l414 -322l-17 -22z" />
<glyph unicode="&#xc9;" horiz-adv-x="1501" d="M-14 33l6 28h278l258 1475h-280l6 29h1257l-57 -328h-29l54 299h-920l-125 -707h725l-6 -28h-723l-131 -740h934l53 299h29l-58 -327h-1271zM741 1778l523 321l14 -24l-522 -322z" />
<glyph unicode="&#xca;" horiz-adv-x="1501" d="M-14 33l6 28h278l258 1475h-280l6 29h1257l-57 -328h-29l54 299h-920l-125 -707h725l-6 -28h-723l-131 -740h934l53 299h29l-58 -327h-1271zM666 1796l364 234l279 -236l-17 -20l-266 219l-344 -221z" />
<glyph unicode="&#xcb;" horiz-adv-x="1501" d="M-14 33l6 28h278l258 1475h-280l6 29h1257l-57 -328h-29l54 299h-920l-125 -707h725l-6 -28h-723l-131 -740h934l53 299h29l-58 -327h-1271zM731 1860q0 26 19 44.5t45 18.5t44.5 -18.5t18.5 -44.5t-18.5 -45t-44.5 -19t-45 19t-19 45zM760 1860q0 -15 10.5 -25t24.5 -10 q15 0 24.5 10.5t9.5 24.5q0 15 -10 24.5t-24 9.5q-15 0 -25 -10t-10 -24zM1141 1860q0 26 18.5 44.5t44.5 18.5t45 -18.5t19 -44.5t-19 -45t-45 -19t-44.5 19t-18.5 45zM1169 1860q0 -15 10.5 -25t24.5 -10q15 0 25 10.5t10 24.5q0 15 -10.5 24.5t-24.5 9.5q-15 0 -25 -10 t-10 -24z" />
<glyph unicode="&#xcc;" horiz-adv-x="778" d="M-14 33l6 28h278l256 1475h-280l6 29h592l-6 -29h-281l-258 -1475h283l-7 -28h-589zM393 2071l17 22l413 -321l-16 -23z" />
<glyph unicode="&#xcd;" horiz-adv-x="778" d="M-14 33l6 28h278l256 1475h-280l6 29h592l-6 -29h-281l-258 -1475h283l-7 -28h-589zM342 1778l522 321l15 -24l-523 -322z" />
<glyph unicode="&#xce;" horiz-adv-x="778" d="M-14 33l6 28h278l256 1475h-280l6 29h592l-6 -29h-281l-258 -1475h283l-7 -28h-589zM264 1796l365 234l278 -236l-16 -20l-266 219l-344 -221z" />
<glyph unicode="&#xcf;" horiz-adv-x="778" d="M-14 33l6 28h278l256 1475h-280l6 29h592l-6 -29h-281l-258 -1475h283l-7 -28h-589zM332 1860q0 26 18.5 44.5t44.5 18.5t45 -18.5t19 -44.5t-19 -45t-45 -19t-44.5 19t-18.5 45zM360 1860q0 -15 10.5 -25t24.5 -10q15 0 25 10.5t10 24.5q0 15 -10.5 24.5t-24.5 9.5 q-15 0 -25 -10t-10 -24zM741 1860q0 26 19 44.5t45 18.5t44.5 -18.5t18.5 -44.5t-18.5 -45t-44.5 -19t-45 19t-19 45zM770 1860q0 -15 10.5 -25t24.5 -10q15 0 25 10.5t10 24.5q0 15 -10.5 24.5t-24.5 9.5q-15 0 -25 -10t-10 -24z" />
<glyph unicode="&#xd0;" horiz-adv-x="1775" d="M-14 33l6 28h278l129 742h-254l7 28h254l122 705h-280l6 29h745q195 0 345.5 -72t238.5 -216t88 -341q0 -185 -64 -351t-177 -287.5t-277.5 -193t-355.5 -71.5h-811zM299 61h498q186 0 345.5 68.5t268 186.5t170 278.5t61.5 341.5q0 191 -82.5 328t-226.5 204.5 t-334 67.5h-440l-125 -705h352l-6 -28h-350z" />
<glyph unicode="&#xd1;" horiz-adv-x="1900" d="M-16 33l6 28h278l258 1475h-280l6 29h301l860 -1524l262 1495h-280l6 29h592l-6 -29h-281l-270 -1538l-15 2l-12 -6l-858 1513l-254 -1446h283l-7 -28h-589zM823 1774q15 94 68.5 161.5t140.5 67.5q81 0 160 -105q37 -48 68 -70t69 -22q76 0 119.5 57.5t58.5 147.5l29 -6 q-15 -94 -67.5 -160.5t-139.5 -66.5q-82 0 -162 104q-37 49 -67 70.5t-68 21.5q-76 0 -120.5 -59t-59.5 -148z" />
<glyph unicode="&#xd2;" horiz-adv-x="1861" d="M156 741q0 171 71 329.5t189 273t277.5 183t330.5 68.5q152 0 288 -58t233 -157t153.5 -236t56.5 -288q0 -171 -71.5 -329.5t-189.5 -273t-277.5 -183t-329.5 -68.5q-153 0 -289 58t-233 157t-153 235.5t-56 288.5zM184 741q0 -147 53.5 -278t146.5 -226t224 -150.5 t279 -55.5q221 0 414.5 110.5t309 301t115.5 413.5q0 196 -91 359t-252.5 257.5t-358.5 94.5q-166 0 -321 -65.5t-268.5 -176t-182 -264t-68.5 -320.5zM938 2071l16 22l414 -321l-16 -23z" />
<glyph unicode="&#xd3;" horiz-adv-x="1861" d="M156 741q0 171 71 329.5t189 273t277.5 183t330.5 68.5q152 0 288 -58t233 -157t153.5 -236t56.5 -288q0 -171 -71.5 -329.5t-189.5 -273t-277.5 -183t-329.5 -68.5q-153 0 -289 58t-233 157t-153 235.5t-56 288.5zM184 741q0 -147 53.5 -278t146.5 -226t224 -150.5 t279 -55.5q221 0 414.5 110.5t309 301t115.5 413.5q0 196 -91 359t-252.5 257.5t-358.5 94.5q-166 0 -321 -65.5t-268.5 -176t-182 -264t-68.5 -320.5zM887 1778l522 321l14 -24l-522 -322z" />
<glyph unicode="&#xd4;" horiz-adv-x="1861" d="M156 741q0 171 71 329.5t189 273t277.5 183t330.5 68.5q152 0 288 -58t233 -157t153.5 -236t56.5 -288q0 -171 -71.5 -329.5t-189.5 -273t-277.5 -183t-329.5 -68.5q-153 0 -289 58t-233 157t-153 235.5t-56 288.5zM184 741q0 -147 53.5 -278t146.5 -226t224 -150.5 t279 -55.5q221 0 414.5 110.5t309 301t115.5 413.5q0 196 -91 359t-252.5 257.5t-358.5 94.5q-166 0 -321 -65.5t-268.5 -176t-182 -264t-68.5 -320.5zM809 1796l365 234l278 -236l-16 -20l-267 219l-344 -221z" />
<glyph unicode="&#xd5;" horiz-adv-x="1861" d="M156 741q0 171 71 329.5t189 273t277.5 183t330.5 68.5q152 0 288 -58t233 -157t153.5 -236t56.5 -288q0 -171 -71.5 -329.5t-189.5 -273t-277.5 -183t-329.5 -68.5q-153 0 -289 58t-233 157t-153 235.5t-56 288.5zM184 741q0 -147 53.5 -278t146.5 -226t224 -150.5 t279 -55.5q221 0 414.5 110.5t309 301t115.5 413.5q0 196 -91 359t-252.5 257.5t-358.5 94.5q-166 0 -321 -65.5t-268.5 -176t-182 -264t-68.5 -320.5zM793 1780q15 94 68 161.5t140 67.5q82 0 160 -104q38 -49 68.5 -71t68.5 -22q76 0 120 58t59 147l28 -6 q-15 -94 -67.5 -160.5t-139.5 -66.5q-81 0 -161 104q-37 49 -67.5 70.5t-68.5 21.5q-76 0 -120.5 -58.5t-59.5 -147.5z" />
<glyph unicode="&#xd6;" horiz-adv-x="1861" d="M156 741q0 171 71 329.5t189 273t277.5 183t330.5 68.5q152 0 288 -58t233 -157t153.5 -236t56.5 -288q0 -171 -71.5 -329.5t-189.5 -273t-277.5 -183t-329.5 -68.5q-153 0 -289 58t-233 157t-153 235.5t-56 288.5zM184 741q0 -147 53.5 -278t146.5 -226t224 -150.5 t279 -55.5q221 0 414.5 110.5t309 301t115.5 413.5q0 196 -91 359t-252.5 257.5t-358.5 94.5q-166 0 -321 -65.5t-268.5 -176t-182 -264t-68.5 -320.5zM874 1860q0 26 19 44.5t45 18.5t44.5 -18.5t18.5 -44.5t-18.5 -45t-44.5 -19t-45 19t-19 45zM903 1860q0 -15 10.5 -25 t24.5 -10q15 0 25 10.5t10 24.5q0 15 -10.5 24.5t-24.5 9.5q-15 0 -25 -10t-10 -24zM1284 1860q0 26 19 44.5t45 18.5t44.5 -18.5t18.5 -44.5t-18.5 -45t-44.5 -19t-45 19t-19 45zM1313 1860q0 -15 10.5 -25t24.5 -10q15 0 24.5 10.5t9.5 24.5q0 15 -10 24.5t-24 9.5 q-15 0 -25 -10t-10 -24z" />
<glyph unicode="&#xd7;" horiz-adv-x="1140" d="M119 375l442 375l-307 372l20 19l308 -373l444 375l18 -21l-444 -377l311 -372l-20 -19l-311 375l-443 -375z" />
<glyph unicode="&#xd8;" horiz-adv-x="1861" d="M156 741q0 171 71 329.5t189 273t277.5 183t330.5 68.5q248 0 446 -151l125 153h37l-139 -170q123 -103 192.5 -252t69.5 -319q0 -171 -71.5 -329.5t-189.5 -273t-277.5 -183t-329.5 -68.5q-253 0 -449 150l-125 -152h-34l139 170q-123 103 -192.5 251.5t-69.5 319.5z M184 741q0 -167 66 -310t184 -241l1018 1233q-187 144 -428 144q-166 0 -321 -65.5t-268.5 -176t-182 -264t-68.5 -320.5zM457 172q187 -141 430 -141q221 0 414.5 110.5t309 301t115.5 413.5q0 166 -66.5 309.5t-184.5 241.5z" />
<glyph unicode="&#xd9;" horiz-adv-x="1855" d="M209 1536l6 29h590l-6 -29h-281l-170 -950q-19 -113 11.5 -216.5t97.5 -177.5t166.5 -117.5t214.5 -43.5q126 0 240.5 49.5t195.5 130t135 179t72 200.5l166 946h-281l6 29h592l-6 -29h-281l-168 -950q-14 -83 -52.5 -166.5t-100 -158.5t-139 -133t-176 -92t-203.5 -34 q-164 0 -293 77.5t-191 213.5t-35 297l168 946h-278zM932 2071l16 22l414 -321l-16 -23z" />
<glyph unicode="&#xda;" horiz-adv-x="1855" d="M209 1536l6 29h590l-6 -29h-281l-170 -950q-19 -113 11.5 -216.5t97.5 -177.5t166.5 -117.5t214.5 -43.5q126 0 240.5 49.5t195.5 130t135 179t72 200.5l166 946h-281l6 29h592l-6 -29h-281l-168 -950q-14 -83 -52.5 -166.5t-100 -158.5t-139 -133t-176 -92t-203.5 -34 q-164 0 -293 77.5t-191 213.5t-35 297l168 946h-278zM881 1778l522 321l14 -24l-522 -322z" />
<glyph unicode="&#xdb;" horiz-adv-x="1855" d="M209 1536l6 29h590l-6 -29h-281l-170 -950q-19 -113 11.5 -216.5t97.5 -177.5t166.5 -117.5t214.5 -43.5q126 0 240.5 49.5t195.5 130t135 179t72 200.5l166 946h-281l6 29h592l-6 -29h-281l-168 -950q-14 -83 -52.5 -166.5t-100 -158.5t-139 -133t-176 -92t-203.5 -34 q-164 0 -293 77.5t-191 213.5t-35 297l168 946h-278zM803 1796l364 234l279 -236l-16 -20l-267 219l-344 -221z" />
<glyph unicode="&#xdc;" horiz-adv-x="1855" d="M209 1536l6 29h590l-6 -29h-281l-170 -950q-19 -113 11.5 -216.5t97.5 -177.5t166.5 -117.5t214.5 -43.5q126 0 240.5 49.5t195.5 130t135 179t72 200.5l166 946h-281l6 29h592l-6 -29h-281l-168 -950q-14 -83 -52.5 -166.5t-100 -158.5t-139 -133t-176 -92t-203.5 -34 q-164 0 -293 77.5t-191 213.5t-35 297l168 946h-278zM870 1860q0 26 19 44.5t45 18.5t44.5 -18.5t18.5 -44.5t-18.5 -45t-44.5 -19t-45 19t-19 45zM899 1860q0 -15 10.5 -25t24.5 -10q15 0 25 10.5t10 24.5q0 15 -10.5 24.5t-24.5 9.5q-15 0 -25 -10t-10 -24zM1280 1860 q0 26 18.5 44.5t44.5 18.5t45 -18.5t19 -44.5t-19 -45t-45 -19t-44.5 19t-18.5 45zM1309 1860q0 -15 10 -25t24 -10q15 0 25 10.5t10 24.5q0 15 -10.5 24.5t-24.5 9.5q-15 0 -24.5 -10t-9.5 -24z" />
<glyph unicode="&#xdd;" horiz-adv-x="1646" d="M121 1536l6 29h588l-6 -29h-301l409 -891l721 891h-301l6 29h592l-6 -29h-258l-744 -922l-98 -553h283l-6 -28h-592l6 28h280l99 555l-420 920h-258zM774 1778l522 321l15 -24l-523 -322z" />
<glyph unicode="&#xde;" horiz-adv-x="1640" d="M-14 33l6 28h278l258 1475h-280l6 29h592l-6 -29h-281l-47 -270h610q182 0 312.5 -118.5t130.5 -293.5q0 -101 -47 -196t-127 -167t-193 -115.5t-237 -43.5h-615l-47 -271h283l-7 -28h-589zM352 360h609q160 0 293 69t207.5 182.5t74.5 242.5q0 165 -120.5 274 t-293.5 109h-616z" />
<glyph unicode="&#xdf;" horiz-adv-x="1439" d="M-39 33l6 28h279l168 949h-281l6 28h279l18 97q15 86 43.5 162.5t73.5 144t102.5 116t135 77t167.5 28.5q76 0 138 -25t99.5 -65t57 -85.5t19.5 -90.5q0 -40 -13 -76.5t-29 -61.5t-48.5 -54.5t-52.5 -44t-60 -42.5q-42 -28 -62.5 -42.5t-53.5 -43t-48.5 -51t-28 -55 t-12.5 -68.5q0 -40 12.5 -72t39.5 -59t49.5 -44t62.5 -43q9 -6 14 -9q46 -31 78 -57t66.5 -65.5t52.5 -89.5t18 -108q0 -142 -110 -236.5t-256 -94.5q-110 0 -214 55t-153 119l21 16q50 -61 145.5 -111.5t200.5 -50.5q139 0 238.5 85t99.5 218q0 54 -16 99t-49 81.5t-62 60 t-76 54.5q-91 60 -123 93q-67 68 -67 159q0 40 14 77t31.5 62.5t51.5 55.5t56 46t64 44q40 27 59 41t49 41.5t44.5 49.5t26 54t11.5 68q0 41 -17.5 82t-50.5 76t-89.5 57t-127.5 22q-85 0 -158 -26.5t-127.5 -73t-96.5 -111t-69 -137.5t-42 -156l-195 -1097h-309z" />
<glyph unicode="&#xe0;" horiz-adv-x="1265" d="M57 328q0 49 14.5 96t48.5 92.5t85 79.5t129.5 55t175.5 21q187 0 428 -76l23 119q9 64 5.5 113.5t-26 86t-52.5 61t-73.5 39t-89 21t-98.5 6.5q-107 0 -217 -24t-168 -51l-13 24q57 30 172 55t226 25q46 0 88 -5.5t83.5 -17.5t74 -31t60.5 -47t42.5 -65.5t20 -85.5 t-6.5 -108l-117 -650h281l-6 -28h-307l22 127q-207 -148 -438 -148q-96 0 -169.5 29t-115 76t-62 100.5t-20.5 110.5zM86 328q0 -54 18 -102.5t55.5 -91t106 -68t158.5 -25.5q239 0 444 160l66 366q-247 76 -424 76q-114 0 -200 -28t-132.5 -75t-69 -100t-22.5 -112z M518 1599l17 23l413 -322l-16 -22z" />
<glyph unicode="&#xe1;" horiz-adv-x="1265" d="M57 328q0 49 14.5 96t48.5 92.5t85 79.5t129.5 55t175.5 21q187 0 428 -76l23 119q9 64 5.5 113.5t-26 86t-52.5 61t-73.5 39t-89 21t-98.5 6.5q-107 0 -217 -24t-168 -51l-13 24q57 30 172 55t226 25q46 0 88 -5.5t83.5 -17.5t74 -31t60.5 -47t42.5 -65.5t20 -85.5 t-6.5 -108l-117 -650h281l-6 -28h-307l22 127q-207 -148 -438 -148q-96 0 -169.5 29t-115 76t-62 100.5t-20.5 110.5zM86 328q0 -54 18 -102.5t55.5 -91t106 -68t158.5 -25.5q239 0 444 160l66 366q-247 76 -424 76q-114 0 -200 -28t-132.5 -75t-69 -100t-22.5 -112z M465 1307l522 321l14 -24l-522 -322z" />
<glyph unicode="&#xe2;" horiz-adv-x="1265" d="M57 328q0 49 14.5 96t48.5 92.5t85 79.5t129.5 55t175.5 21q187 0 428 -76l23 119q9 64 5.5 113.5t-26 86t-52.5 61t-73.5 39t-89 21t-98.5 6.5q-107 0 -217 -24t-168 -51l-13 24q57 30 172 55t226 25q46 0 88 -5.5t83.5 -17.5t74 -31t60.5 -47t42.5 -65.5t20 -85.5 t-6.5 -108l-117 -650h281l-6 -28h-307l22 127q-207 -148 -438 -148q-96 0 -169.5 29t-115 76t-62 100.5t-20.5 110.5zM86 328q0 -54 18 -102.5t55.5 -91t106 -68t158.5 -25.5q239 0 444 160l66 366q-247 76 -424 76q-114 0 -200 -28t-132.5 -75t-69 -100t-22.5 -112z M389 1325l365 234l278 -236l-16 -20l-266 219l-344 -222z" />
<glyph unicode="&#xe3;" horiz-adv-x="1265" d="M57 328q0 49 14.5 96t48.5 92.5t85 79.5t129.5 55t175.5 21q187 0 428 -76l23 119q9 64 5.5 113.5t-26 86t-52.5 61t-73.5 39t-89 21t-98.5 6.5q-107 0 -217 -24t-168 -51l-13 24q57 30 172 55t226 25q46 0 88 -5.5t83.5 -17.5t74 -31t60.5 -47t42.5 -65.5t20 -85.5 t-6.5 -108l-117 -650h281l-6 -28h-307l22 127q-207 -148 -438 -148q-96 0 -169.5 29t-115 76t-62 100.5t-20.5 110.5zM86 328q0 -54 18 -102.5t55.5 -91t106 -68t158.5 -25.5q239 0 444 160l66 366q-247 76 -424 76q-114 0 -200 -28t-132.5 -75t-69 -100t-22.5 -112z M373 1303q15 94 68.5 161.5t140.5 67.5q44 0 81.5 -26t77.5 -79q37 -48 68.5 -70t69.5 -22q76 0 119.5 57.5t58.5 147.5l28 -6q-15 -94 -67 -160.5t-139 -66.5q-82 0 -162 104q-37 49 -67 70.5t-68 21.5q-76 0 -121 -59t-60 -148z" />
<glyph unicode="&#xe4;" horiz-adv-x="1265" d="M57 328q0 49 14.5 96t48.5 92.5t85 79.5t129.5 55t175.5 21q187 0 428 -76l23 119q9 64 5.5 113.5t-26 86t-52.5 61t-73.5 39t-89 21t-98.5 6.5q-107 0 -217 -24t-168 -51l-13 24q57 30 172 55t226 25q46 0 88 -5.5t83.5 -17.5t74 -31t60.5 -47t42.5 -65.5t20 -85.5 t-6.5 -108l-117 -650h281l-6 -28h-307l22 127q-207 -148 -438 -148q-96 0 -169.5 29t-115 76t-62 100.5t-20.5 110.5zM86 328q0 -54 18 -102.5t55.5 -91t106 -68t158.5 -25.5q239 0 444 160l66 366q-247 76 -424 76q-114 0 -200 -28t-132.5 -75t-69 -100t-22.5 -112z M455 1389q0 26 18.5 44.5t44.5 18.5t45 -18.5t19 -44.5t-19 -45t-45 -19t-44.5 19t-18.5 45zM483 1389q0 -15 10.5 -25t24.5 -10q15 0 25 10.5t10 24.5q0 15 -10.5 24.5t-24.5 9.5q-15 0 -25 -10t-10 -24zM864 1389q0 26 19 44.5t45 18.5t44.5 -18.5t18.5 -44.5t-18.5 -45 t-44.5 -19t-45 19t-19 45zM893 1389q0 -15 10.5 -25t24.5 -10q15 0 25 10.5t10 24.5q0 15 -10.5 24.5t-24.5 9.5q-15 0 -25 -10t-10 -24z" />
<glyph unicode="&#xe5;" horiz-adv-x="1265" d="M57 328q0 49 14.5 96t48.5 92.5t85 79.5t129.5 55t175.5 21q187 0 428 -76l23 119q9 64 5.5 113.5t-26 86t-52.5 61t-73.5 39t-89 21t-98.5 6.5q-107 0 -217 -24t-168 -51l-13 24q57 30 172 55t226 25q46 0 88 -5.5t83.5 -17.5t74 -31t60.5 -47t42.5 -65.5t20 -85.5 t-6.5 -108l-117 -650h281l-6 -28h-307l22 127q-207 -148 -438 -148q-96 0 -169.5 29t-115 76t-62 100.5t-20.5 110.5zM86 328q0 -54 18 -102.5t55.5 -91t106 -68t158.5 -25.5q239 0 444 160l66 366q-247 76 -424 76q-114 0 -200 -28t-132.5 -75t-69 -100t-22.5 -112z M543 1458q0 78 57 135.5t135 57.5t135.5 -57.5t57.5 -135.5t-57.5 -135t-135.5 -57t-135 57t-57 135zM571 1458q0 -69 47.5 -116.5t116.5 -47.5t116.5 47.5t47.5 116.5t-47.5 116.5t-116.5 47.5t-116.5 -47.5t-47.5 -116.5z" />
<glyph unicode="&#xe6;" horiz-adv-x="2000" d="M57 328q0 49 14.5 96t48.5 92.5t85 79.5t129.5 55t175.5 21q186 0 430 -76l21 119q16 77 2 133t-41.5 93.5t-76 60t-101.5 31.5t-117 9q-107 0 -217 -24t-168 -51l-13 24q57 30 172 55t226 25q62 0 116.5 -9.5t104.5 -33t84 -59t51 -92t10 -127.5q75 142 217 228.5 t308 86.5q157 0 246 -73.5t89 -192.5q0 -107 -79.5 -185t-206.5 -115.5t-283 -37.5q-152 0 -323 35q2 -195 131.5 -325t341.5 -130q204 0 376 131l19 -22q-181 -138 -395 -138q-152 0 -268.5 68.5t-178.5 185.5q-260 -254 -563 -254q-96 0 -169.5 29t-115 76t-62 100.5 t-20.5 110.5zM86 328q0 -54 18 -102.5t55.5 -91t106 -68t158.5 -25.5q149 0 283 60.5t266 191.5q-41 96 -41 207q0 45 4 65q-244 78 -426 78q-114 0 -200 -28t-132.5 -75t-69 -100t-22.5 -112zM961 524q168 -35 323 -35q153 0 274 35t194 106t73 169q0 107 -81 172t-226 65 t-271 -67.5t-202.5 -185.5t-83.5 -259z" />
<glyph unicode="&#xe7;" horiz-adv-x="1230" d="M109 500q0 113 47 218t125 181t183.5 121t217.5 45q122 0 228.5 -57t142.5 -150l39 217h28l-86 -487h-28l34 196q-3 110 -110 181t-248 71q-145 0 -270.5 -71.5t-200 -195.5t-74.5 -269q0 -195 130.5 -327t336.5 -132q222 0 418 145l18 -22q-108 -79 -221.5 -115.5 t-214.5 -36.5q-48 0 -92 6l-27 -141q130 -20 203.5 -85t73.5 -152q0 -96 -69 -158t-185 -62q-71 0 -143.5 13.5t-108.5 26.5l-37 14l12 26q14 -6 38 -14.5t97 -22.5t142 -14q107 0 166 52t59 139q0 79 -67.5 135.5t-198.5 74.5l2 15l-14 2l28 158q-168 38 -271 170t-103 305 z" />
<glyph unicode="&#xe8;" horiz-adv-x="1177" d="M109 500q0 114 47.5 219t126.5 180.5t187 120.5t224 45q157 0 246.5 -73.5t89.5 -192.5q0 -107 -79.5 -185t-206.5 -115.5t-283 -37.5q-153 0 -324 35q2 -195 131.5 -325t341.5 -130q205 0 377 131l19 -22q-181 -138 -396 -138q-110 0 -204.5 38.5t-159 104.5t-101 155.5 t-36.5 189.5zM137 524q168 -35 324 -35q153 0 273.5 35t193.5 106t73 169q0 107 -81 172t-226 65t-271 -67.5t-202.5 -185.5t-83.5 -259zM541 1599l16 23l414 -322l-17 -22z" />
<glyph unicode="&#xe9;" horiz-adv-x="1177" d="M109 500q0 114 47.5 219t126.5 180.5t187 120.5t224 45q157 0 246.5 -73.5t89.5 -192.5q0 -107 -79.5 -185t-206.5 -115.5t-283 -37.5q-153 0 -324 35q2 -195 131.5 -325t341.5 -130q205 0 377 131l19 -22q-181 -138 -396 -138q-110 0 -204.5 38.5t-159 104.5t-101 155.5 t-36.5 189.5zM137 524q168 -35 324 -35q153 0 273.5 35t193.5 106t73 169q0 107 -81 172t-226 65t-271 -67.5t-202.5 -185.5t-83.5 -259zM487 1307l523 321l14 -24l-522 -322z" />
<glyph unicode="&#xea;" horiz-adv-x="1177" d="M109 500q0 114 47.5 219t126.5 180.5t187 120.5t224 45q157 0 246.5 -73.5t89.5 -192.5q0 -107 -79.5 -185t-206.5 -115.5t-283 -37.5q-153 0 -324 35q2 -195 131.5 -325t341.5 -130q205 0 377 131l19 -22q-181 -138 -396 -138q-110 0 -204.5 38.5t-159 104.5t-101 155.5 t-36.5 189.5zM137 524q168 -35 324 -35q153 0 273.5 35t193.5 106t73 169q0 107 -81 172t-226 65t-271 -67.5t-202.5 -185.5t-83.5 -259zM412 1325l364 234l279 -236l-17 -20l-266 219l-344 -222z" />
<glyph unicode="&#xeb;" horiz-adv-x="1177" d="M109 500q0 114 47.5 219t126.5 180.5t187 120.5t224 45q157 0 246.5 -73.5t89.5 -192.5q0 -107 -79.5 -185t-206.5 -115.5t-283 -37.5q-153 0 -324 35q2 -195 131.5 -325t341.5 -130q205 0 377 131l19 -22q-181 -138 -396 -138q-110 0 -204.5 38.5t-159 104.5t-101 155.5 t-36.5 189.5zM137 524q168 -35 324 -35q153 0 273.5 35t193.5 106t73 169q0 107 -81 172t-226 65t-271 -67.5t-202.5 -185.5t-83.5 -259zM477 1389q0 26 19 44.5t45 18.5t44.5 -18.5t18.5 -44.5t-18.5 -45t-44.5 -19t-45 19t-19 45zM506 1389q0 -15 10.5 -25t24.5 -10 q15 0 24.5 10.5t9.5 24.5q0 15 -10 24.5t-24 9.5q-15 0 -25 -10t-10 -24zM887 1389q0 26 18.5 44.5t44.5 18.5t45 -18.5t19 -44.5t-19 -45t-45 -19t-44.5 19t-18.5 45zM915 1389q0 -15 10.5 -25t24.5 -10q15 0 25 10.5t10 24.5q0 15 -10.5 24.5t-24.5 9.5q-15 0 -25 -10 t-10 -24z" />
<glyph unicode="&#xec;" horiz-adv-x="692" d="M-39 33l6 28h279l170 953h-283l6 28h310l-175 -981h281l-6 -28h-588zM229 1599l17 23l413 -322l-16 -22z" />
<glyph unicode="&#xed;" horiz-adv-x="692" d="M-39 33l6 28h279l170 953h-283l6 28h310l-175 -981h281l-6 -28h-588zM176 1307l522 321l15 -24l-523 -322z" />
<glyph unicode="&#xee;" horiz-adv-x="692" d="M-39 33l6 28h279l170 953h-283l6 28h310l-175 -981h281l-6 -28h-588zM100 1325l365 234l278 -236l-16 -20l-266 219l-344 -222z" />
<glyph unicode="&#xef;" horiz-adv-x="692" d="M-39 33l6 28h279l170 953h-283l6 28h310l-175 -981h281l-6 -28h-588zM166 1389q0 26 18.5 44.5t44.5 18.5t45 -18.5t19 -44.5t-19 -45t-45 -19t-44.5 19t-18.5 45zM195 1389q0 -15 10 -25t24 -10q15 0 25 10.5t10 24.5q0 15 -10.5 24.5t-24.5 9.5q-15 0 -24.5 -10 t-9.5 -24zM575 1389q0 26 19 44.5t45 18.5t44.5 -18.5t18.5 -44.5t-18.5 -45t-44.5 -19t-45 19t-19 45zM604 1389q0 -15 10.5 -25t24.5 -10q15 0 25 10.5t10 24.5q0 15 -10.5 24.5t-24.5 9.5q-15 0 -25 -10t-10 -24z" />
<glyph unicode="&#xf0;" horiz-adv-x="1312" d="M106 489q0 110 46 211.5t122.5 175.5t179.5 118t212 44q95 0 184 -35.5t162.5 -116.5t99.5 -194v17q0 376 -186 624q-71 96 -174 166l-250 -229l-21 20l246 226q-223 132 -520 79l-4 29q314 54 545 -90l182 168l20 -21l-176 -161q102 -71 176 -170q92 -126 141.5 -292 t49.5 -349q0 -149 -34 -270t-90 -199t-130.5 -130.5t-151.5 -75t-157 -22.5q-131 0 -239.5 64t-170.5 173.5t-62 239.5zM135 489q0 -190 126.5 -319t316.5 -129q61 0 120.5 13t123 46.5t115.5 84.5t94.5 133t62.5 186q10 102 -10.5 188t-62.5 143.5t-100.5 98t-123 58.5 t-131.5 18q-141 0 -263 -69.5t-195 -190t-73 -261.5z" />
<glyph unicode="&#xf1;" horiz-adv-x="1464" d="M-39 33l6 28h279l170 953h-283l6 28h310l-39 -215q102 109 223.5 173.5t240.5 64.5q55 0 105 -15.5t94.5 -48.5t72.5 -85.5t39 -126.5t-7 -171l-99 -557h281l-6 -28h-307l102 590q17 114 2.5 192.5t-59 127.5t-99 71t-119.5 22q-123 0 -246 -70t-227 -192l-127 -713h281 l-6 -28h-588zM547 1303q15 94 68.5 161.5t140.5 67.5q44 0 81.5 -26t77.5 -79q37 -48 68.5 -70t69.5 -22q76 0 119.5 57.5t58.5 147.5l29 -6q-15 -94 -67.5 -160.5t-139.5 -66.5q-82 0 -162 104q-37 49 -67 70.5t-68 21.5q-76 0 -121 -59t-60 -148z" />
<glyph unicode="&#xf2;" horiz-adv-x="1316" d="M109 502q0 150 79 280.5t211.5 206.5t282.5 76q133 0 244.5 -66t175 -178.5t63.5 -245.5q0 -150 -79 -280.5t-211.5 -206.5t-282.5 -76q-133 0 -244.5 66t-175 178.5t-63.5 245.5zM137 502q0 -194 130.5 -327.5t324.5 -133.5q145 0 270.5 71.5t200 195t74.5 267.5 q0 194 -130.5 327.5t-324.5 133.5q-145 0 -270.5 -71.5t-200 -195t-74.5 -267.5zM582 1599l16 23l414 -322l-17 -22z" />
<glyph unicode="&#xf3;" horiz-adv-x="1316" d="M109 502q0 150 79 280.5t211.5 206.5t282.5 76q133 0 244.5 -66t175 -178.5t63.5 -245.5q0 -150 -79 -280.5t-211.5 -206.5t-282.5 -76q-133 0 -244.5 66t-175 178.5t-63.5 245.5zM137 502q0 -194 130.5 -327.5t324.5 -133.5q145 0 270.5 71.5t200 195t74.5 267.5 q0 194 -130.5 327.5t-324.5 133.5q-145 0 -270.5 -71.5t-200 -195t-74.5 -267.5zM528 1307l523 321l14 -24l-522 -322z" />
<glyph unicode="&#xf4;" horiz-adv-x="1316" d="M109 502q0 150 79 280.5t211.5 206.5t282.5 76q133 0 244.5 -66t175 -178.5t63.5 -245.5q0 -150 -79 -280.5t-211.5 -206.5t-282.5 -76q-133 0 -244.5 66t-175 178.5t-63.5 245.5zM137 502q0 -194 130.5 -327.5t324.5 -133.5q145 0 270.5 71.5t200 195t74.5 267.5 q0 194 -130.5 327.5t-324.5 133.5q-145 0 -270.5 -71.5t-200 -195t-74.5 -267.5zM453 1325l364 234l279 -236l-17 -20l-266 219l-344 -222z" />
<glyph unicode="&#xf5;" horiz-adv-x="1316" d="M109 502q0 150 79 280.5t211.5 206.5t282.5 76q133 0 244.5 -66t175 -178.5t63.5 -245.5q0 -150 -79 -280.5t-211.5 -206.5t-282.5 -76q-133 0 -244.5 66t-175 178.5t-63.5 245.5zM137 502q0 -194 130.5 -327.5t324.5 -133.5q145 0 270.5 71.5t200 195t74.5 267.5 q0 194 -130.5 327.5t-324.5 133.5q-145 0 -270.5 -71.5t-200 -195t-74.5 -267.5zM436 1303q15 94 68.5 161.5t140.5 67.5q81 0 160 -105q37 -48 68 -70t69 -22q76 0 119.5 57.5t58.5 147.5l29 -6q-15 -94 -67.5 -160.5t-139.5 -66.5q-82 0 -162 104q-37 49 -67 70.5 t-68 21.5q-76 0 -120.5 -59t-59.5 -148z" />
<glyph unicode="&#xf6;" horiz-adv-x="1316" d="M109 502q0 150 79 280.5t211.5 206.5t282.5 76q133 0 244.5 -66t175 -178.5t63.5 -245.5q0 -150 -79 -280.5t-211.5 -206.5t-282.5 -76q-133 0 -244.5 66t-175 178.5t-63.5 245.5zM137 502q0 -194 130.5 -327.5t324.5 -133.5q145 0 270.5 71.5t200 195t74.5 267.5 q0 194 -130.5 327.5t-324.5 133.5q-145 0 -270.5 -71.5t-200 -195t-74.5 -267.5zM518 1389q0 26 19 44.5t45 18.5t44.5 -18.5t18.5 -44.5t-18.5 -45t-44.5 -19t-45 19t-19 45zM547 1389q0 -15 10.5 -25t24.5 -10q15 0 24.5 10.5t9.5 24.5q0 15 -10 24.5t-24 9.5 q-15 0 -25 -10t-10 -24zM928 1389q0 26 18.5 44.5t44.5 18.5t45 -18.5t19 -44.5t-19 -45t-45 -19t-44.5 19t-18.5 45zM956 1389q0 -15 10.5 -25t24.5 -10q15 0 25 10.5t10 24.5q0 15 -10.5 24.5t-24.5 9.5q-15 0 -25 -10t-10 -24z" />
<glyph unicode="&#xf7;" horiz-adv-x="1228" d="M182 735l6 29h887l-6 -29h-887zM498 373q0 26 18.5 44.5t44.5 18.5t45 -18.5t19 -44.5t-19 -45t-45 -19t-44.5 19t-18.5 45zM526 373q0 -15 10.5 -25t24.5 -10q15 0 25 10.5t10 24.5q0 15 -10.5 25t-24.5 10q-15 0 -25 -10.5t-10 -24.5zM631 1126q0 26 18.5 45t44.5 19 t45 -19t19 -45t-19 -44.5t-45 -18.5t-44.5 18.5t-18.5 44.5zM659 1126q0 -15 10.5 -24.5t24.5 -9.5q15 0 25 10t10 24q0 15 -10.5 25t-24.5 10q-15 0 -25 -10.5t-10 -24.5z" />
<glyph unicode="&#xf8;" horiz-adv-x="1318" d="M111 502q0 150 79 280.5t211.5 206.5t282.5 76q170 0 299 -104l100 114h39l-116 -133q76 -68 118.5 -164t42.5 -203q0 -150 -79 -280.5t-211.5 -206.5t-282.5 -76q-171 0 -301 105l-100 -117h-37l116 133q-76 68 -118.5 164t-42.5 205zM139 502q0 -104 39.5 -194 t110.5 -154l678 786q-127 96 -283 96q-145 0 -270.5 -71.5t-200 -195t-74.5 -267.5zM309 137q123 -96 285 -96q145 0 270.5 71.5t200 195t74.5 267.5q0 102 -40 192.5t-110 154.5z" />
<glyph unicode="&#xf9;" horiz-adv-x="1417" d="M57 1014l6 28h308l-103 -589q-17 -114 -2.5 -192.5t59 -128t99 -71.5t119.5 -22q122 0 246 69.5t227 190.5l127 715h-283l6 28h310l-175 -981h281l-6 -28h-307l37 213q-102 -108 -223.5 -172t-239.5 -64q-69 0 -129.5 24.5t-109.5 77.5t-65.5 138.5t1.5 206.5l98 557 h-281zM614 1599l17 23l413 -322l-16 -22z" />
<glyph unicode="&#xfa;" horiz-adv-x="1417" d="M57 1014l6 28h308l-103 -589q-17 -114 -2.5 -192.5t59 -128t99 -71.5t119.5 -22q122 0 246 69.5t227 190.5l127 715h-283l6 28h310l-175 -981h281l-6 -28h-307l37 213q-102 -108 -223.5 -172t-239.5 -64q-69 0 -129.5 24.5t-109.5 77.5t-65.5 138.5t1.5 206.5l98 557 h-281zM561 1307l522 321l15 -24l-523 -322z" />
<glyph unicode="&#xfb;" horiz-adv-x="1417" d="M57 1014l6 28h308l-103 -589q-17 -114 -2.5 -192.5t59 -128t99 -71.5t119.5 -22q122 0 246 69.5t227 190.5l127 715h-283l6 28h310l-175 -981h281l-6 -28h-307l37 213q-102 -108 -223.5 -172t-239.5 -64q-69 0 -129.5 24.5t-109.5 77.5t-65.5 138.5t1.5 206.5l98 557 h-281zM485 1325l365 234l278 -236l-16 -20l-266 219l-344 -222z" />
<glyph unicode="&#xfc;" horiz-adv-x="1417" d="M57 1014l6 28h308l-103 -589q-17 -114 -2.5 -192.5t59 -128t99 -71.5t119.5 -22q122 0 246 69.5t227 190.5l127 715h-283l6 28h310l-175 -981h281l-6 -28h-307l37 213q-102 -108 -223.5 -172t-239.5 -64q-69 0 -129.5 24.5t-109.5 77.5t-65.5 138.5t1.5 206.5l98 557 h-281zM551 1389q0 26 18.5 44.5t44.5 18.5t45 -18.5t19 -44.5t-19 -45t-45 -19t-44.5 19t-18.5 45zM580 1389q0 -15 10 -25t24 -10q15 0 25 10.5t10 24.5q0 15 -10.5 24.5t-24.5 9.5q-15 0 -24.5 -10t-9.5 -24zM961 1389q0 26 18.5 44.5t44.5 18.5t44.5 -18.5t18.5 -44.5 t-18.5 -45t-44.5 -19t-44.5 19t-18.5 45zM989 1389q0 -15 10.5 -25t24.5 -10q15 0 25 10.5t10 24.5q0 15 -10.5 24.5t-24.5 9.5q-15 0 -25 -10t-10 -24z" />
<glyph unicode="&#xfd;" horiz-adv-x="1388" d="M-319 -389l24 12q41 -93 116.5 -132.5t162.5 -39.5q135 0 259 99t257 319l61 102l-268 1043h-246l6 28h570l-7 -28h-292l260 -1010l614 1010h-303l6 28h569l-6 -28h-231l-709 -1161q-137 -224 -268 -327.5t-272 -103.5q-42 0 -83 9.5t-83 29.5t-78 58.5t-59 91.5z M571 1307l523 321l14 -24l-522 -322z" />
<glyph unicode="&#xfe;" horiz-adv-x="1439" d="M-242 -545l6 29h279l360 2052h-282l6 29h309l-141 -813q73 140 211.5 226.5t298.5 86.5q133 0 244.5 -66t175 -178.5t63.5 -245.5q0 -150 -79 -280.5t-211.5 -206.5t-282.5 -76q-183 0 -316.5 117.5t-160.5 294.5l-166 -940h280l-6 -29h-588zM260 502 q0 -194 130.5 -327.5t324.5 -133.5q145 0 270.5 71.5t200 195t74.5 267.5q0 194 -130.5 327.5t-324.5 133.5q-145 0 -270.5 -71.5t-200 -195t-74.5 -267.5z" />
<glyph unicode="&#xff;" horiz-adv-x="1388" d="M-319 -389l24 12q41 -93 116.5 -132.5t162.5 -39.5q135 0 259 99t257 319l61 102l-268 1043h-246l6 28h570l-7 -28h-292l260 -1010l614 1010h-303l6 28h569l-6 -28h-231l-709 -1161q-137 -224 -268 -327.5t-272 -103.5q-42 0 -83 9.5t-83 29.5t-78 58.5t-59 91.5z M561 1389q0 26 19 44.5t45 18.5t44.5 -18.5t18.5 -44.5t-18.5 -45t-44.5 -19t-45 19t-19 45zM590 1389q0 -15 10.5 -25t24.5 -10q15 0 24.5 10.5t9.5 24.5q0 15 -10 24.5t-24 9.5q-15 0 -25 -10t-10 -24zM971 1389q0 26 18.5 44.5t44.5 18.5t45 -18.5t19 -44.5t-19 -45 t-45 -19t-44.5 19t-18.5 45zM999 1389q0 -15 10.5 -25t24.5 -10q15 0 25 10.5t10 24.5q0 15 -10.5 24.5t-24.5 9.5q-15 0 -25 -10t-10 -24z" />
<glyph unicode="&#x152;" horiz-adv-x="2342" d="M154 690q0 197 74 362.5t202.5 277t305.5 173.5t380 62h1235l-57 -328h-29l53 299h-917l-125 -707h725l-6 -28h-723l-131 -740h934l53 297h29l-58 -325h-1247q-147 0 -277.5 53.5t-222 143t-145 209.5t-53.5 251zM182 690q0 -126 50.5 -241.5t138 -201t213 -136 t268.5 -50.5h260l258 1475h-254q-200 0 -371.5 -59t-296 -167t-195.5 -267.5t-71 -352.5z" />
<glyph unicode="&#x153;" horiz-adv-x="2203" d="M106 492q0 150 79.5 280.5t212 206.5t282.5 76q181 0 314 -116t163 -292q54 178 210.5 293t350.5 115q157 0 246.5 -74t89.5 -193q0 -107 -79.5 -185t-206.5 -115t-283 -37q-157 0 -324 34q2 -195 131.5 -324.5t341.5 -129.5q205 0 377 131l19 -23q-180 -137 -396 -137 q-198 0 -332 114.5t-163 291.5q-56 -176 -209.5 -291t-339.5 -115q-203 0 -343.5 143.5t-140.5 346.5zM135 492q0 -194 130.5 -327.5t324.5 -133.5q145 0 270.5 71.5t200 195t74.5 267.5q0 194 -130.5 327.5t-324.5 133.5q-145 0 -270.5 -71.5t-200 -195t-74.5 -267.5z M1161 514q168 -35 324 -35q153 0 273.5 34.5t193.5 105.5t73 169q0 107 -81 172.5t-226 65.5t-271 -67.5t-202.5 -185.5t-83.5 -259z" />
<glyph unicode="&#x178;" horiz-adv-x="1646" d="M121 1536l6 29h588l-6 -29h-301l409 -891l721 891h-301l6 29h592l-6 -29h-258l-744 -922l-98 -553h283l-6 -28h-592l6 28h280l99 555l-420 920h-258zM764 1860q0 26 18.5 44.5t44.5 18.5t45 -18.5t19 -44.5t-19 -45t-45 -19t-44.5 19t-18.5 45zM793 1860q0 -15 10 -25 t24 -10q15 0 25 10.5t10 24.5q0 15 -10.5 24.5t-24.5 9.5q-15 0 -24.5 -10t-9.5 -24zM1174 1860q0 26 18.5 44.5t44.5 18.5t44.5 -18.5t18.5 -44.5t-18.5 -45t-44.5 -19t-44.5 19t-18.5 45zM1202 1860q0 -15 10.5 -25t24.5 -10q15 0 25 10.5t10 24.5q0 15 -10.5 24.5 t-24.5 9.5q-15 0 -25 -10t-10 -24z" />
<glyph unicode="&#x2c6;" horiz-adv-x="669" d="M-225 1325l364 234l279 -236l-17 -20l-266 219l-344 -222z" />
<glyph unicode="&#x2dc;" horiz-adv-x="632" d="M201 1303q15 94 68.5 161.5t140.5 67.5q44 0 81.5 -26t77.5 -79q37 -48 68.5 -70t69.5 -22q76 0 119.5 57.5t58.5 147.5l28 -6q-15 -94 -67 -160.5t-139 -66.5q-82 0 -162 104q-37 49 -67 70.5t-68 21.5q-76 0 -121 -59t-60 -148z" />
<glyph unicode="&#x2000;" horiz-adv-x="1049" />
<glyph unicode="&#x2001;" horiz-adv-x="2099" />
<glyph unicode="&#x2002;" horiz-adv-x="1049" />
<glyph unicode="&#x2003;" horiz-adv-x="2099" />
<glyph unicode="&#x2004;" horiz-adv-x="699" />
<glyph unicode="&#x2005;" horiz-adv-x="524" />
<glyph unicode="&#x2006;" horiz-adv-x="349" />
<glyph unicode="&#x2007;" horiz-adv-x="349" />
<glyph unicode="&#x2008;" horiz-adv-x="262" />
<glyph unicode="&#x2009;" horiz-adv-x="419" />
<glyph unicode="&#x200a;" horiz-adv-x="116" />
<glyph unicode="&#x2010;" horiz-adv-x="821" d="M154 614l6 29h493l-6 -29h-493z" />
<glyph unicode="&#x2011;" horiz-adv-x="821" d="M154 614l6 29h493l-6 -29h-493z" />
<glyph unicode="&#x2012;" horiz-adv-x="821" d="M154 614l6 29h493l-6 -29h-493z" />
<glyph unicode="&#x2013;" horiz-adv-x="1239" d="M154 614l6 29h911l-6 -29h-911z" />
<glyph unicode="&#x2014;" horiz-adv-x="1564" d="M154 614l6 29h1237l-6 -29h-1237z" />
<glyph unicode="&#x2018;" horiz-adv-x="524" d="M268 1276q0 50 28 105t67.5 97t79.5 77t68 54l28 19l16 -22q-10 -7 -27.5 -19t-62 -50t-78.5 -75.5t-62 -89t-28 -96.5q0 -21 11.5 -34t27.5 -13q15 0 25 10.5t10 24.5q0 15 -10.5 24.5t-24.5 9.5v29q26 0 44.5 -18.5t18.5 -44.5t-18.5 -45t-44.5 -19q-29 0 -48.5 21 t-19.5 55z" />
<glyph unicode="&#x2019;" horiz-adv-x="520" d="M236 1208q10 7 27.5 19t62 50t78.5 75.5t62 89t28 96.5q0 21 -11.5 34t-27.5 13q-15 0 -25 -10.5t-10 -24.5q0 -15 10.5 -24.5t24.5 -9.5v-29q-26 0 -45 18.5t-19 44.5t19 45t45 19q29 0 48 -21t19 -55q0 -50 -28 -105t-67.5 -97t-79 -77t-67.5 -54l-28 -19z" />
<glyph unicode="&#x201a;" horiz-adv-x="657" d="M16 -270q10 7 27.5 19t62 49.5t78.5 75t62 89t28 96.5q0 21 -11 34t-27 13q-15 0 -25 -10t-10 -24q0 -15 10.5 -25t24.5 -10v-29q-26 0 -45 19t-19 45t19 44.5t45 18.5q29 0 48 -21t19 -55q0 -50 -28 -105t-67.5 -97t-79 -77t-67.5 -54l-28 -19z" />
<glyph unicode="&#x201c;" horiz-adv-x="849" d="M268 1276q0 50 28 105t67.5 97t79.5 77t68 54l28 19l16 -22q-10 -7 -27.5 -19t-62 -50t-78.5 -75.5t-62 -89t-28 -96.5q0 -21 11.5 -34t27.5 -13q15 0 25 10.5t10 24.5q0 15 -10.5 24.5t-24.5 9.5v29q26 0 44.5 -18.5t18.5 -44.5t-18.5 -45t-44.5 -19q-29 0 -48.5 21 t-19.5 55zM594 1276q0 50 28 105t67.5 97t79 77t67.5 54l28 19l17 -22q-10 -7 -27.5 -19t-62 -50t-78.5 -75.5t-62 -89t-28 -96.5q0 -21 11.5 -34t27.5 -13q15 0 24.5 10.5t9.5 24.5q0 15 -10 24.5t-24 9.5v29q26 0 44.5 -18.5t18.5 -44.5t-18.5 -45t-44.5 -19 q-29 0 -48.5 21t-19.5 55z" />
<glyph unicode="&#x201d;" horiz-adv-x="845" d="M236 1208q10 7 27.5 19t62 50t78.5 75.5t62 89t28 96.5q0 21 -11.5 34t-27.5 13q-15 0 -25 -10.5t-10 -24.5q0 -15 10.5 -24.5t24.5 -9.5v-29q-26 0 -45 18.5t-19 44.5t19 45t45 19q29 0 48 -21t19 -55q0 -50 -28 -105t-67.5 -97t-79 -77t-67.5 -54l-28 -19zM561 1208 q10 7 27.5 19t62 50t78.5 75.5t62 89t28 96.5q0 21 -11.5 34t-27.5 13q-15 0 -25 -10.5t-10 -24.5q0 -15 10.5 -24.5t24.5 -9.5v-29q-26 0 -44.5 18.5t-18.5 44.5t18.5 45t44.5 19q29 0 48.5 -21t19.5 -55q0 -50 -28 -105t-67.5 -97t-79 -77t-67.5 -54l-28 -19z" />
<glyph unicode="&#x201e;" horiz-adv-x="980" d="M16 -270q10 7 27.5 19t62 49.5t78.5 75t62 89t28 96.5q0 21 -11 34t-27 13q-15 0 -25 -10t-10 -24q0 -15 10.5 -25t24.5 -10v-29q-26 0 -45 19t-19 45t19 44.5t45 18.5q29 0 48 -21t19 -55q0 -50 -28 -105t-67.5 -97t-79 -77t-67.5 -54l-28 -19zM342 -270q10 7 27.5 19 t62 49.5t78.5 75t62 89t28 96.5q0 21 -11.5 34t-27.5 13q-15 0 -25 -10t-10 -24q0 -15 10.5 -25t24.5 -10v-29q-26 0 -44.5 19t-18.5 45t18.5 44.5t44.5 18.5q29 0 48.5 -21t19.5 -55q0 -37 -15 -76t-39 -72.5t-52.5 -65.5t-57.5 -56.5t-53 -43t-39 -28.5l-15 -10z" />
<glyph unicode="&#x2022;" horiz-adv-x="954" d="M219 635q0 103 74.5 177.5t177.5 74.5t177.5 -74.5t74.5 -177.5t-74.5 -177.5t-177.5 -74.5t-177.5 74.5t-74.5 177.5zM248 635q0 -94 64.5 -158.5t158.5 -64.5t158.5 64.5t64.5 158.5t-64.5 158.5t-158.5 64.5t-158.5 -64.5t-64.5 -158.5z" />
<glyph unicode="&#x2026;" horiz-adv-x="1171" d="M88 72q0 26 19 44.5t45 18.5t44.5 -18.5t18.5 -44.5t-18.5 -45t-44.5 -19t-45 19t-19 45zM117 72q0 -15 10.5 -25t24.5 -10q15 0 24.5 10.5t9.5 24.5q0 15 -10 24.5t-24 9.5q-15 0 -25 -10t-10 -24zM416 72q0 26 18.5 44.5t44.5 18.5t45 -18.5t19 -44.5t-19 -45t-45 -19 t-44.5 19t-18.5 45zM444 72q0 -15 10.5 -25t24.5 -10q15 0 25 10.5t10 24.5q0 15 -10.5 24.5t-24.5 9.5q-15 0 -25 -10t-10 -24zM743 72q0 26 19 44.5t45 18.5t44.5 -18.5t18.5 -44.5t-18.5 -45t-44.5 -19t-45 19t-19 45zM772 72q0 -15 10.5 -25t24.5 -10q15 0 25 10.5 t10 24.5q0 15 -10.5 24.5t-24.5 9.5q-15 0 -25 -10t-10 -24z" />
<glyph unicode="&#x202f;" horiz-adv-x="419" />
<glyph unicode="&#x2039;" horiz-adv-x="708" d="M139 621l13 8l-11 10l461 412l19 -23l-451 -401l307 -402l-22 -16z" />
<glyph unicode="&#x203a;" horiz-adv-x="706" d="M78 229l450 402l-307 401l23 17l315 -412l-12 -8l10 -11l-461 -411z" />
<glyph unicode="&#x205f;" horiz-adv-x="524" />
<glyph unicode="&#x20ac;" horiz-adv-x="1900" d="M92 606l6 29h238q-6 52 -6 106q0 106 28 215h-204l6 29h209q84 264 316 437t513 173q129 0 245.5 -40.5t200.5 -118.5t113 -179l62 340h28l-75 -426l-46 -256h-28l45 256q-5 118 -81.5 209.5t-198.5 139t-265 47.5q-272 0 -495 -164.5t-306 -417.5h809l-6 -29h-811 q-31 -109 -31 -215q0 -53 9 -106h692l-6 -29h-682q45 -252 235.5 -413.5t454.5 -161.5q167 0 307.5 50.5t282.5 172.5l18 -23q-148 -124 -293.5 -176.5t-314.5 -52.5q-181 0 -335.5 79t-254.5 216.5t-129 308.5h-250z" />
<glyph unicode="&#x2122;" horiz-adv-x="1634" d="M252 1536l6 29h520l-6 -29h-244l-96 -537h-29l97 537h-248zM864 999l107 603l14 -3l14 5l185 -494l362 498l13 -9l14 -2l-107 -598h-28l94 541l-340 -469l-12 8l-15 -4l-176 469l-96 -545h-29z" />
<glyph unicode="&#x25fc;" horiz-adv-x="1044" d="M0 0v1044h1044v-1044h-1044z" />
</font>
</defs>
</svg>
